<?xml version="1.0" encoding="UTF-8"?>
<svg version="1.1" viewBox="0 0 1563 1563" width="1280" height="1280" xmlns="http://www.w3.org/2000/svg">
<path transform="translate(1227,474)" d="m0 0h7l13 6 3 7v9l-5 5-7 3-5 8-2 10-5 6-14 9-21 14-3 5-7 8-6 5-7 2-9 1-5 3-1 3-1 11-7 8-12 10-8 7-5 6-15 10-9 7-12 5-11 3-13 2-8 4-10 8 1 4h15l15-1 21 2 11 4 15 6 7 4 14 10 8 7 9 9 4 8-1 5-3 2h-7l-8-7-7-8-12-11-19-10-8-2h-34l-13 4-13 6-9 7-7 6-10 14-8 15-6 21-3 16v40l2 15 6 21 7 16 8 12 7 8 14 11 7 4 18 5 8 1h14l15-3 13-4 15-9 11-9 9-11 6-9 5-4h6l5 5-1 7-5 9-4 6-13 15-12 10-8 4-7 5-8 2-9 4-18 2-8 2h-11l-29-4-12-5-10-4-17-11-10-8-11-12-5-5-10-15-8-17-4-13-3-8-2-22v-14l1-14 8-31 9-19 7-10 1-7-6-1-6 4-9 5-14 11-2 1h-14l-12 3-14 7-10 4-13 4-16 8-14 10-9 6-6 5-5 5-13 10-9 6-15 6-9-1-5-2h-12l-7 3-11 8-9 10-5 2-12 1-26 13-22 1-12 4-7 5-7 10-4 3-16 3h-20l-32 3-11 6-42 7-11 3-7 7-10 4-10 5-23 6-21 2-10 2-7 3-46-1-13 4-8 2h-16l-16 3-10 4h-48l-7-1h-11l-5 1h-9l-6-3-7-5-9-1-6 3-5 5-7 1-6-3-6-5-9-3-12-1-9-4-5-6-4-4-12-5-10-8-10-7-6-5-8-13-12-6-5-5-8-11-1-2v-11l3-6 9-8 17-7h13l6 4 8 5 8 4 4 4 3 14 7-1 12-7 19-5 16-5 13-3 11-4 16-4 11-4 8-2 8-4 16-4 13-5 16-5 24-7 11-4 20-6 16-5 8-4 13-3 19-7 14-6 18-4 15-5 8-3 7-4 13-4 11-4 15-4 11-4 14-3 13-4 12-3 11-5 17-5 8-3 10-2 20-8 15-5 16-4 13-5 16-6 15-5 11-4 16-5 18-5 35-11 24-8 18-7 7-3 12-3 12-5 15-3 8-4 15-3 6 1-1 5-11 11-8 7-14 14-11 9-12 12-11 9-12 12-10 8-5 5-4 5-4 6-6 5-8 4-1 7h7l5-3 7-9 6-4 11-4 8-6 7-1 10 5h7l5-3 12-4 10-8 9-4 7-6 4-5 7-4 12-4 8-6 8 1 14 2 11 4h7l8-4 9-5 6-5 2-4-1-7-2-5v-9l4-4 6-4 8-7 10-2 10 1h11l8-2 9-12 2-2h7l12 5 9 1 8-7 7-3 3-5 4-16 6-5 2-1h8l6 2h7l8-4 7-6 13-7 5-4 10-16 14-14 8-4 15-2 3-3 5-8zm-476 199-6 2-16 3-17 6-19 5-10 4-8 2-8 4-56 16-20 6-11 4-42 14-17 5-12 4-10 3-4 2-13 3-12 5-21 6-15 5-12 3-26 9-27 9-14 4-13 5-17 5-9 3-12 3-17 6-19 7-13 4-10 5-16 3-21 7-4 5 1 4 4 3 4 1h8l21-5 7-1h11l10 6h16l7 2 8-1 6-3 7-7 4-2 15-3 14-7 10-8 8-1 7 3 8 7h6l16-9h22l15-6 18-3 12-5 17-2 9-1 10-5 11-2h26l14-2 9-5 3-3 22-7 9-4 21-2 17-8 5-6-2-10 1-5 13-7 8-5 3-1h7l5 5 3 10 5 3 5-3 4-5 2-6 2-13 6-7 8-7 15-11 11-9 5-5 6-4 7-10-1-4zm10 48-5 4-4 8-12 5-7 7-2 5 1 4 1 1h7l12-6 5-6v-2l6-2 4-5v-10l-3-3z" fill="#F99C3A"/>
<path transform="translate(886,590)" d="m0 0 5 2-4 7-9 9-5 6-8 7-6 5h-2v2l-7 6-14 14-8 7-14 14-11 9-7 8-9 8-5 3-8 11-4 4h-2l-2 4-8 4-4 5-4 7-10 3-1 3h-2v2l-8 7-4 8-5 4h-6l-4 8h-2l-2 4-11 8-7 1-1-7v-8l3-5 5-8 3-21 10-9 10-8 11-8 8-7 12-10h2l2-4 6-7 3-7-13 1-19 5-13 4-11 4-16 4-6 3-12 3-7 4-25 7-26 7-8 3-15 4-9 4-15 4-23 8-8 3-13 3-12 5-12 3-21 6-10 4-16 5-22 7-10 3-57 19-16 6-21 6-13 4-12 3-19 7-13 5-13 4-11 5-20 5-21 7-7 4-12 5-16 4-16 3h-6l-4-5-3-13 1-7 5-5 10-7 29-9 6-2 10-2 5-2 3-3 17-4 14-5 8-2 8-4 16-4 13-5 16-5 24-7 11-4 20-6 16-5 8-4 13-3 19-7 14-6 18-4 15-5 8-3 7-4 13-4 11-4 15-4 11-4 14-3 13-4 12-3 11-5 17-5 8-3 12-1 20-8 24-7 11-4 20-7 7-3 13-4 33-11 14-3 14-5 16-5 12-4 12-3 11-4 9-4 8-3 16-4 9-4 16-3h3v-2z" fill="#6A99C7"/>
<path transform="translate(1294,671)" d="m0 0h89l18 2 11 5 13 4 15 9 12 9 10 10 13 19 9 17 7 25 2 15v19l-2 18-7 26-8 16-5 8-9 10-10 10-15 10-19 8-7 3-28 3h-21l-70-1-5-5v-222l1-13zm45 15-6 3-2 3-1 5-1 91 1 106 3 5 4 2h24l26-2 8-3 14-6 10-8 10-9 5-9 5-10 4-10 3-10 2-21v-28l-3-27-6-17-5-13-10-14-10-10-10-8-10-4-7-4-24-2z" fill="#012855"/>
<path transform="translate(503,595)" d="m0 0 22 1 11 2 43 3 62 3 14 2 14 1 10 3 2 4-7 4-14 6-15 4-11 4-12 2-11 5-15 4-28 10-18 5-16 6-9 3-10 4-12 3-7 4-15 4-10 4-15 4-8 4-16 4-14 5-10 3-9 4-20 6-8 3-8 2-13 5-10 3-13 5-13 4-21 7-8 4-16 4-10 4-11 3-13 5-13 4-11 4-30 10-7 3-9 3-6-1-2-3v-8l4-10 4-6 8-4 13-6 13-3 8-4 17-4 8-4 16-4 10-4 12-3 10-5 15-4 11-4 13-4 7-3 15-4 9-4 14-4 13-5 12-3 11-4 13-3 12-5 11-3 8-4 14-3 11-5 15-4 8-4 15-4 8-4 10-3 5-5 1-5-9-3-6-3-5-5-11-12-2-5 1-4z" fill="#032A57"/>
<path transform="translate(1060,665)" d="m0 0h23l16 3 14 5 1 2 6 1 7 4 1 2h5l8 6 8 7 9 9 4 8-1 5-3 2h-7l-8-7-7-8-12-11-19-10-8-2h-34l-13 4-13 6-9 7-7 6-10 14-8 15-6 21-3 16v40l2 15 6 21 7 16 8 12 7 8 14 11 7 4 18 5 8 1h14l15-3 13-4 15-9 11-9 9-11 6-9 5-4h6l5 5-1 7-5 9-4 6-13 15-12 10-8 4-7 5-8 2-9 4-18 2-8 2h-11l-29-4-12-5-10-4-17-11-10-8-11-12-5-5-10-15-4-9-1-5-6-18-2-5-2-15v-30l3-16 6-22 8-16 7-10 5-8 1-3 7-7 7-6 14-9 18-10 6-1 1-2 8-3h10z" fill="#022956"/>
<path transform="translate(1207,672)" d="m0 0h31l4 4 1 8v226l-3 5-2 1h-31l-6-3-2-3v-172l1-51 1-11 3-3z" fill="#012855"/>
<path transform="translate(611,943)" d="m0 0h5l5 10 5 8v3l3-1 5-16 2-2 6 1 5 4 4 9 3 1 3-13 1-2h27l4 4 1 3v7l-2 8 1 6-3 9-6 2-6 1v7l4 3 7 2 1 2v6l-3 2h-17l-7-3-3-12-2-11-3 1-3 14-2 8-3 2h-7l-3-3-4-11-5-1-4 8-2 5-2 2h-5l-5-6-3-5-3-8-3-1-3 3-1 11-2 4-5-1-5-11-3-15-1-4h-4l-4 8-4 3-7 2-1 5 4 4 6 3 2 5-4 4h-13l-6-3-4-5-1-2-1-12v-11l2-17 6-8 4-3 13-1 6 3 5 5 5-1 5-5 5-2 8 7 4 7 1 4h3l3-19zm-52 19-2 2 1 4 2 1h13l1-4-2-3zm117 2v2h2v-2z" fill="#EAF0F6"/>
<path transform="translate(78,1050)" d="m0 0h5l3 3 3 7 3 2h14l10-1 13 2h35l31-1 13-5 8 2 6 3h14l11-1 5 1 197 1 17-1 3-4 3-5 4 2 1 9-4 8-9 3-93 1h-105l-16-1h-17l-23 1-8-1-76 1-8 8h-9l-7-6-13-4-7-3h-14l-4-3 1-7 10-9z" fill="#E9EFF5"/>
<path transform="translate(761,1042)" d="m0 0 4 1 4 8 6 9 2 1h9l9-1 6 2h164l5-3h2l2-5 5-10 7-1 6 4 6 5 3 5v7l-3 5-10 2-29 4h-159l-10-2-8 1h-9l-7-2-9 1-5 2-8-1-5-5-5 1-4 2-46 3-64-1-9-3h-14l-4-4v-6l12-12h6l5 6 2 6 4 1h70l5-2 12 2 9-3 7-1h8l5 5 16-1 3-2 1-3 1-13z" fill="#6A99C7"/>
<path transform="translate(507,947)" d="m0 0h10l12 9v6l-3 4h-5l-6-4-5 1-1 5 3 3 2 1 11 1 5 4 1 2v18l-6 7-6 3h-13l-9-6-6-7-3-3-5 1-6 12-1 1h-5l-7-7-4-10-5-1-4 16-4 1-5-4-3-6-3-8h-3l-5 18-1 1h-7l-3-3-1-3-1-24v-18l3-7 3-2h5l4 5 3 6 4-1 5-5 6-5 6 1 5 4 4 6 4-1 4-8 5 1 8 9v2h6l5-7z" fill="#E9EFF5"/>
<path transform="translate(1160,1031)" d="m0 0 4 2 1 1 1 18 6 8 4 2h49l6-1h9l9 1 3-1h22l4 1h73l9-1 5 1 28 1h13l33-1h11l10-3h6l1 1v7l-4 4-5 1-39 1h-74l-14 1h-104l-44 1-14-2-7-8-4-10v-20z" fill="#6A96C2"/>
<path transform="translate(562,945)" d="m0 0 6 1 8 7 5-1 5-5 5-2 8 7 4 7 1 4h3l4-11 4-1 3 3v48l-2 4h-5l-5-6-3-5-3-8-3-1-3 3-1 11-2 4-5-1-5-11-3-15-1-4h-4l-4 8-4 3-7 2-1 5 4 4 6 3 2 5-4 4h-13l-6-3-4-5-1-2-1-12v-11l2-17 6-8 4-3zm-3 17-2 2 1 4 2 1h13l1-4-2-3z" fill="#E6EDF4"/>
<path transform="translate(421,948)" d="m0 0h5l4 5 3 6 4-1 5-5 4-3v2l9 1 8 16 4 3h2l1-14 1-4 5-1 1 2v42l-2 5h-3l-7-7-3-11-5-6-2-1v-2l-3 2-1 7v7l-1 5 2 1-1 6-4 1-5-4-3-6-3-8h-3l-5 18-1 1h-7l-3-3-1-3-1-24v-18l3-7z" fill="#E9EFF5"/>
<path transform="translate(725,939)" d="m0 0 5 1v4l-1 1 1 7 4 6v17l-5 8v7l3 12-3 4h-8l-4-3-5 1-3 2-7-1-5-5-1-3-1-17-2-7v-19l3-5 2-7 7-1 12 1z" fill="#012855"/>
<path transform="translate(134,943)" d="m0 0 8 1 6 5 7 11 2 10v10l-2 13-4 6-9 7-4 1h-8l-6-4-6-7-4-9-4-8-1-13 6-4 5-8 8-9zm1 19-2 2v6l1 2 4-1 2-2v-5l-2-2zm-1 19-2 3v6l2 3 5-1 1-6-4-5z" fill="#E9EFF5"/>
<path transform="translate(1329,948)" d="m0 0 5 1 10 15 5 1 5-12 5-3 6 1 2 6v33l-1 11-3 4-10-1-4-2-13-1-6-1-5 1-2-6v-28l-1-11 3-6z" fill="#012855"/>
<path transform="translate(70,1061)" d="m0 0 18 3 4 1h37v2l8-2h53l23-2 13 2h241l5-2h2l-1 7-9 3h-50v-2l4-1-11 1v-2l-17 1-16-1h-25l-46 1h-93l-9-1h-38l-5 1-59 1-4-2h-8v-2l-9 1h-12v-4z" fill="#012855"/>
<path transform="translate(956,942)" d="m0 0 5 1 6 9 8 7 3 7v12l-1 12-4 8-9 7-6 2h-12l-5-2-2-3-1-44 3-9 4-3zm0 19-4 5v22l3 5 4 1 4-5 1-4v-11l-2-10-3-3z" fill="#012855"/>
<path transform="translate(503,595)" d="m0 0 22 1 11 2 43 3 62 3 14 2 14 1 10 3 2 4-7 4-14 6-15 4-11 4-12 2-11 5-15 4-28 10-18 5-16 6-9 3-10 4-12 3-7 4-15 4-10 4-15 4-8 4-16 4-14 5-10 3-9 4-20 6-8 3-8 2-13 5-10 3-13 5-13 4-21 7-8 4-16 4-10 4-11 3-13 5-13 4-11 4-30 10-7 3-9 3-6-1-2-3v-8l4-10 4-6 8-4 13-6 13-3 6-2v2l-7 3-13 3-13 6-5 2-7 16v7h7l17-6 22-8 39-13 17-5 13-5 15-5 23-8 111-37 10-4 17-5 11-4 28-9 11-4 42-14 10-4 14-4 11-4 29-9 17-6 20-6 17-5 11-5h4l-1-3-2-1-31-3-91-5-20-2-13-2-18-2z" fill="#93B4D6"/>
<path transform="translate(172,945)" d="m0 0h5l7 11 9 9 2-12 2-4h4l2 5v42l-1 7-1 1-7-1-6-8-3-5h-4l-4 11-4 3-5-2-2-4-2-17v-13l2-16 3-5z" fill="#012855"/>
<path transform="translate(1162,946)" d="m0 0h9l8 6 5 4 4 9v23l-3 8-7 8-5 3h-11l-9-6-4-5-5-15 1-9 4-14 5-5zm4 14-5 4-2 6v17l4 7 3 3 5-1 3-7 1-15-2-10-3-4z" fill="#012855"/>
<path transform="translate(605,1049)" d="m0 0h6l5 6 2 6 2 1h-5l-2-3-2-7-3-1-1 4h-2v2l-5 2-3 1-1 8 11-2h5v3l34 1 15 2h16l34-1 17-2 7-2 12 1 9-1h34l6 1h78l36 1h16l2 1v2l19-1h25l13-2h11v1l-37 5h-159l-10-2-8 1h-9l-7-2-9 1-5 2-8-1-5-5-5 1-4 2-46 3-64-1-9-3h-14l-4-4v-6l5-5z" fill="#DBE5F0"/>
<path transform="translate(229,945)" d="m0 0 6 1 9 9 4 11v25l-4 8-5 6-5 2h-10l-5-4-2-3v-5l4-2 9-2-1-5-9-5-6-9-1-3v-7l4-7 9-9zm1 18v4l4-1-2-3z" fill="#E6EDF4"/>
<path transform="translate(994,945)" d="m0 0h18l4 4 1 2v6l-4 4-8 2v5l8 4 1 2v7l-5 3-6 2-1 4 3 4 7 3 2 2v6l-3 2-13 1-8-3-3-4-2-14-1-10v-14l2-11 5-6z" fill="#E0E9F2"/>
<path transform="translate(791,943)" d="m0 0 6 1v12l-4 4-9 2-1 5 3 3 7 3 1 7-4 3-7 2v6l3 3 7 3 3 4-1 5-2 1h-17l-7-3-2-7-1-19v-12l1-13 3-6 3-3z" fill="#E1EAF2"/>
<path transform="translate(895,585)" d="m0 0 6 1-1 5-11 11-8 7-14 14-11 9-12 12-11 9-12 12-10 8-5 5-4 5-4 6-6 5-8 4-1 7h7l5-3 4-6h1l2 10-2 2-21 2-8 3-3 5-1 6-3-2-5 1-3 4-4 7-12 5-7 8-1 6 1 1 7 1v1h-10l-4-2 1-5 7-8 3-1v-2l5-4 8-3 5-9 6-5 6-3 5-5 8-10 5-5 8-6 8-8 4-5 11-9 18-18 8-7 6-5 7-8h2v-2l8-6 11-10 7-8 7-9-4-2-7 1v2l-13 3-12 3-9 4-16 4-8 4-12 4-8 3-16 4-14 5-16 5-9 3-10 2-48 16-13 5-11 4-12 4-21 6-20 8h-5l3-2 20-8 15-5 16-4 13-5 16-6 15-5 11-4 16-5 18-5 35-11 24-8 18-7 7-3 12-3 12-5 15-3 8-4z" fill="#FDFDFD"/>
<path transform="translate(272,945)" d="m0 0 11 2 3 3v8l-10 5 1 5 6 5 1 6-4 4-6 4v5l9 7 1 5-5 3h-14l-5-2-2-7-1-15-1-5v-16l3-12 3-3z" fill="#E3EBF3"/>
<path transform="translate(78,1050)" d="m0 0h5l3 3 3 7 3 2h14l10-1 13 2h35l31-1 13-5 8 2 6 3h14l11-1 5 1 197 1 17-1 3-4 3-5 4 2 1 9-3 6-1-2 1-5-7 3h-241l-17-2-19 2h-53l-8 1v-2l-18 1h-24l-3-1-2-1-9-1-3-1-4 3 1 2h20v2l8-1 4 3-15-1-19-1-1-1 1-7 10-9z" fill="#CEDDEB"/>
<path transform="translate(1425,950)" d="m0 0 6 1 6 7 3 7h4l4-13 5 1 4 4-2 28v13l-3 5-5-1-8-11-4-6-4 1-3 13-3 3-4-6-1-37 3-7z" fill="#012855"/>
<path transform="translate(1210,946)" d="m0 0 10 1 12 10 2 4v9l-4 7-8 7-7 3-2 5-2 9-2 3-5 1-4-2-1-5-1-27v-15l3-6zm3 17-1 6 2 3 4-2v-6z" fill="#012855"/>
<path transform="translate(863,939)" d="m0 0h7v4l-3 1-2 12-3 3-9 3-1 1v7l4 2 6 4-1 5-8 4-1 7 4 5 7 3 1 4-1 2-3 1h-15l-5-2-3-5-1-8v-34l3-7 4-5 17-5z" fill="#DDE7F1"/>
<path transform="translate(1082,943)" d="m0 0 12 2 3 4 1 7-2 3-9 4-1 3 4 5 5 4 1 5-8 5-3 2 1 5 6 5 4 2 1 5-5 3h-9l-8-1-4-5-2-12 1-31 3-9 4-5z" fill="#79A3CC"/>
<path transform="translate(1255,947)" d="m0 0h7l10 8 2 3 1 10-3 9-5 5-11 6-2 12-2 4-7 1-3-4-1-9 1-35 3-7 2-2z" fill="#012855"/>
<path transform="translate(1296,945)" d="m0 0h11l4 4v9l-2 2-10 2v6l5 3 5 2v6l-3 3-6 3-1 1v6l3 4 6 3 1 1v5l-8 2-10-1-4-2-3-7-2-24v-16l3-6 8-5z" fill="#012855"/>
<path transform="translate(755,670)" d="m0 0 7 1-1 5-6 8-4 5-9 7-10 9-10 7-9 7-13 11-2 1 2-4 13-12 14-10 11-9 5-5 4-3h2l2-5 4-5-1-4-9 2-16 3-17 6-19 5-10 4-8 2-8 4-56 16-20 6-11 4-42 14-17 5-12 4-10 3-4 2-13 3-12 5-21 6-15 5-12 3-26 9-27 9-14 4-13 5-17 5-9 3-12 3-17 6-19 7-13 4-10 5-16 3-21 7-3 4 1 5-6-2-7-1 1-2 9-4 12-5 25-7 10-3 14-6 13-4 10-4 21-7 16-4 13-4 15-5 14-5 54-18 10-3 31-10 11-3 9-4 18-5 14-4 10-4 19-5 14-5 21-7 13-4 8-3 15-4 9-3 43-12 7-4 14-4 10-4 16-4 14-5 20-5z" fill="#FDFDFD"/>
<path transform="translate(83,946)" d="m0 0h8l14 10 3 6v3l-9 1-7-4-7 1-3 3-2 6v16l6 7 6 1 4-4 7-1 1 1-1 7-8 7-2 1h-11l-6-4-7-8-4-8-1-5v-8l3-9 5-9 6-5z" fill="#CFDDEB"/>
<path transform="translate(981,1046)" d="m0 0 7 1 4 2 6 6v12l-4 1h-13l-4 1h-10l3 2h-21l-1-1h-13v1h-7l-2-1h-22l-42-1h-66l-11-1h-29l-9 1-4-1 1-4h10l9-2h8l4 1h23l5 1 96 1h71v-2l7-1 16 1v-3l-8-3-8 1v-6l2-4h2z" fill="#012855"/>
<path transform="translate(1390,947)" d="m0 0h11l5 5v6l-4 3-7 1-1 1v7l8 2 2 2v7l-2 2-9 3v6l4 3 5 3 2 2-1 5-1 1h-14l-6-3-3-7-1-8v-30l3-6z" fill="#FDFDFD"/>
<path transform="translate(507,947)" d="m0 0h10l12 9v6l-4 1-7-3 4-1 5 2-1-5h-2v-2l-5-1-6-2h-6l-5 3-5 4-4 9-1 8v12l3 7 4 3 4 2 3 4 2 2 4 2h-6l-9-6-6-7-3-3-5 1-6 12-1 1h-5l-7-7-4-10-5-1-3 10-2 1-1-3 1-4v-8l2-7 3-1v2l4 2 4 5 3 11 6 5v2l3-2 1-4v-41l-5-1v10l-1 8-3 1-6-5-6-13v-2l-9-1 2-4 6 1 5 4 4 6 4-1 4-8 5 1 8 9v2h6l5-7z" fill="#E5EDF4"/>
<path transform="translate(1026,947)" d="m0 0 8 1 4 4 3 13h5l3-9 4-4 6-2 3 5-1 7-3 4-4 20-8 17h-5l-5-8-5-14-1-9-7-12v-9z" fill="#012855"/>
<path transform="translate(608,1051)" d="m0 0 4 1 3 10 20 1 82 1 7-1h7l-2 6-7 2-11 1-34 1h-16l-15-2-27-1-7-1v-3l-10 2h-6v-6l5-5h4v-2l2-1z" fill="#6694C2"/>
<path transform="translate(329,949)" d="m0 0 5 1 3 6 1 33 3 3 8 4 2 4-1 6-2 1h-16l-6-3-3-5-1-2-1-10v-19l1-12z" fill="#012855"/>
<path transform="translate(1207,672)" d="m0 0h31l4 4 1 8v226l-2 2-1-234-2-3-9-1h-21l-4 2-1 5-1 52v177l5 3 29 1 2 2h-31l-6-3-2-3v-172l1-51 1-11 3-3z" fill="#98B8D8"/>
<path transform="translate(875,942)" d="m0 0h7l14 2 4 9v5l-5 6-1 2v33l-2 5-2 2h-6l-3-4-1-4v-33l-4-7z" fill="#FDFDFD"/>
<path transform="translate(587,952)" d="m0 0h7l3 4 5 12 6 5 3-3 1-16h4l1 1v46l-2 2-6-1-5-11-2-7-7-8-3-1-2 20v2l-4-1-1-3-1-23v-15z" fill="#012855"/>
<path transform="translate(130,950)" d="m0 0h11l7 4 1 3 3 3 2 7v19l-3 10-8 6-5 1v-2h3l-1-3 4-10v-21l-4-9-2-2-6 1-4 6-2 5-1 13 2 9 3 6v3h2v2l4-1 1 4h-8l-2-1v-2l-9-5v-6l-3-8-1-6 3-11 3-8 5-5z" fill="#012855"/>
<path transform="translate(725,939)" d="m0 0 5 1v4l-1 1 1 7 4 6v17l-5 8v7l3 12-3 4h-8l-4-3-5 1-3 2-7-1-5-5-1-3-1-17-2-7v-19l3-5 2-7 7-1 12 1zm-22 12-3 4v44l5 5 4-1 2-3v-11l6 2 3 10 4 4 4-1-1-10-2-8v-7l5-6 1-6-2-11-5-4-2-1z" fill="#EEF3F7"/>
<path transform="translate(1113,948)" d="m0 0 6 1 6 7 1 35 3 4 8 3 1 4-1 3-6 2-15-1-5-5-1-5v-41l2-6z" fill="#012855"/>
<path transform="translate(446,952)" d="m0 0 9 1 8 16 4 3h2l1-14 1-4 5-1 1 2v42l-2 5h-3l-7-7-3-11-5-6-2-1v-2l-3 2-1 7v7l-2 7-2-1-1-3-1-20v-20z" fill="#012855"/>
<path transform="translate(745,945)" d="m0 0h7l5 5 1 17v14l-1 18-2 5-2 2h-7l-3-4-2-18 1-26 1-9z" fill="#012855"/>
<path transform="translate(172,945)" d="m0 0h5l7 11 9 9 2-12 2-4h4l2 5v42l-1 7-1 1-7-1-6-8-3-5h-4l-4 11-4 3-5-2-2-4-2-17v-13l2-16 3-5zm-2 6-2 7-1 13v17l1 9 2 2 3-2v-11l-1-17 5 5 8 11 6 10 7 6 3-2v-44l-3-3-2 4v21h-4l-2-4-9-16-4-6z" fill="#D3E1ED"/>
<path transform="translate(1329,948)" d="m0 0 5 1 10 15 5 1 5-12 5-3 6 1 2 6v33l-1 11-3 4-10-1-4-2-13-1-6-1-5 1-2-6v-28l-1-11 3-6zm-1 3-3 3v31l3-2 6-1 2 6 1 8h8l3-3 1-9 3 3 2 10 5 2 2-1 1 2 3-3v-42l-3-3-7 2-2 5-1 10-3 1h-7l-3-5-4-12-3-2z" fill="#6998C6"/>
<path transform="translate(1292,672)" d="m0 0v3l-2 2v233l3 3 31 1h35l31-1 18-2 20-7 14-7 13-10 2 1-9 8-13 8-17 7-7 3-28 3h-21l-70-1-5-5v-222l1-13z" fill="#6C9AC7"/>
<path transform="translate(301,949)" d="m0 0h6l4 4 1 3 1 24-1 16-2 8-1 1h-8l-3-4-1-4v-41l3-6z" fill="#012855"/>
<path transform="translate(662,951)" d="m0 0h19l3 1v2h2v2l-2 1-12 1v14l9 2v2l2 1v2h-2l-1 2-7 1-2 9 2 8 3 2 8 1 1 2h-8l-3 1h-10l-4-5v-47h2z" fill="#012855"/>
<path transform="translate(956,942)" d="m0 0 5 1 6 9 8 7 3 7v12l-1 12-4 8-9 7-6 2h-12l-5-2-2-3-1-44 3-9 4-3zm-13 9-3 3v44l2 6 3 1h11l-1-3-3-2-1-11-1-2v-9l1-13 2-6h7l3 3 3 14v9l-3 10-2 5h5l4-4h2v-2l2-1 1-5v-21l-4-9-9-6-6-1zm13 10-4 5v22l3 5 4 1 4-5 1-4v-11l-2-10-3-3z" fill="#BED2E6"/>
<path transform="translate(1472,948)" d="m0 0h7l8 3 2 3-1 6-2 4v31l-2 7-2 2h-6l-3-7-1-31-4-8v-6z" fill="#012855"/>
<path transform="translate(1162,946)" d="m0 0h9l8 6 5 4 4 9v23l-3 8-7 8-5 3h-11l-9-6-4-5-5-15 1-9 4-14 5-5zm2 4-6 3-6 5-4 9-1 7v11l3 9 7 8 8 4 2-2-1-3-4-2-4-10-1-5v-13l5-15h9l5 10 1 4v17l-6 13 1 4 5-2 6-8 3-7v-22l-7-11h-3v-2l-4-2zm2 10-5 4-2 6v17l4 7 3 3 5-1 3-7 1-15-2-10-3-4z" fill="#B0C8E0"/>
<path transform="translate(1227,474)" d="m0 0h7l13 6 3 7v9l-5 5-7 3-5 8-2 10-5 6-14 9-9 6-2-1 7-6 14-9 5-4 1-2 1-10 4-8 13-7 1-1v-7l-4-6-11-5-5 1-5 6-4 10-2 1h-7l-2-1h-8l-10 7-7 7-7 10-6 9-8 7-8 4-10 7-10 4-5 1h-10l-6-1-4 1-2 5-3 12-3 5-2-1 3-5 4-16 6-5 2-1h8l6 2h7l8-4 7-6 13-7 5-4 10-16 14-14 8-4 15-2 3-3 5-8z" fill="#FDFDFD"/>
<path transform="translate(1096,572)" d="m0 0 2 1-9 7-4 5-3 5-2 2-4-1-4-5-4-4-6-3-8 1-1 4 5 1 1 4-5 3-8 3h-34l-8 2-7 7-7 3-1 7 3 3 4 3-1 7-9 10-9 6-12 6h-10l-9-5-13-1-3-3 13 1 15 5h7l8-4 9-5 6-5 2-4-1-7-2-5v-9l4-4 6-4 8-7 10-2 10 1h11l8-2 9-12 2-2h7l12 5 9 1 8-7z" fill="#FDFDFD"/>
<path transform="translate(1345,683)" d="m0 0 22 1 13 1 7 1 14 7 3 3-9-2-8-5-24-2h-24l-6 3-2 7-1 91 1 106 2 4 4 2h24l26-2 8-3 4-2 3 1-9 5-11 2-22 2h-25l-5-3-2-6v-196l2-12 3-2z" fill="#6D9BC8"/>
<path transform="translate(993,951)" d="m0 0h12l7 2 2 2-2 2-9 1-2 2-1 9 1 5 9 3-1 4-8 1-1 2v12l9 9h-13l-5-2-2-7v-42z" fill="#012855"/>
<path transform="translate(775,951)" d="m0 0h18l2 4-4 2-7 1-3 4v11l6 2 1 4-6 4-1 3v8l2 4 6 4-2 3h-11l-5-3-1-11v-20l1-18z" fill="#012855"/>
<path transform="translate(1460,1059)" d="m0 0h6l1 1v7l-4-4-2 2-40 1h-57v2h-24l-2-2h-53l-14-1v-3l-18 2-4 1h-24v-3l6-1h9l9 1 3-1h22l4 1h73l9-1 5 1 28 1h13l33-1h11z" fill="#7EA7CE"/>
<path transform="translate(397,707)" d="m0 0h7l-2 2-23 7-8 3-8 2-13 5-10 3-13 5-13 4-21 7-8 4-16 4-10 4-11 3-13 5-13 4-11 4-30 10-7 3-9 3-6-1-2-3v-8l4-10 4-6 8-4 13-6 13-3 6-2v2l-7 3-13 3-13 6-5 2-7 16v7h7l17-6 22-8 39-13 17-5 13-5 15-5 23-8 81-27z" fill="#A2BFDB"/>
<path transform="translate(1464,1067)" d="m0 0h2l-1 3-7 2-39 1h-74l-14 1h-104l-44 1-14-2-2-3h18l11 2h29l91-2 108-1 13-1h25l2 1z" fill="#F2F5F9"/>
<path transform="translate(261,951)" d="m0 0h21l1 4-5 2-7 2-2 5 2 7 8 3 1 4-1 2-9 2-2 7 3 7-1 5-2 4-5-2-3-3-1-21v-25z" fill="#022956"/>
<path transform="translate(843,951)" d="m0 0h15v2l3 1-2 3-7 2-3 3-1 5 2 7h2l2 6-5 5v8l4 8 7 1 1 2-13 1-3-1-2-2-3-1-2-5v-41l2-3z" fill="#012855"/>
<path transform="translate(507,950)" d="m0 0h8l9 4v2h2l1 5-9-2-4-2-5 1-3 3-3 5-1 13 2 12 2 4 7 7 5 2 1 3h-7l-5-2-4-4-1-2-6-3-3-3-2-9v-12l3-10 4-6h2l1-3h2l2-2z" fill="#012855"/>
<path transform="translate(611,943)" d="m0 0h5l5 10 5 8v3l3-1 3-9h1l1 17v18l-1 10-2-3-3-5-5 1-5 12-1-2v-50h-6l-1 7h-1v-10z" fill="#F8FAFB"/>
<path transform="translate(548,951)" d="m0 0h16l5 2-1 4-9 1-4 4v10l1 1 11 1 1 5h-2l-1 2h-10v13l1 3-3 9-5-5-3-5v-40l1-3h2z" fill="#012855"/>
<path transform="translate(1296,945)" d="m0 0h11l4 4v9l-2 2-10 2v6l5 3 5 2v6l-3 3-6 3-1 1v6l3 4 6 3 1 1v5l-8 2-10-1-4-2-3-7-2-24v-16l3-6 8-5zm-6 6-4 3-1 3v26l1 13 1 2 3 4 3 3h6l3-1h3v-2l-7-2-3-8 1-11h5l2-5-7-4v-13l13-2 1-4-5-2z" fill="#D8E4EF"/>
<path transform="translate(227,950)" d="m0 0h6l7 3 2 6-1 3-5-2-4-2h-5v9l12 9 4 7 1 10-3 6-2 1-4-1-2-14-4-2-8-6-1-4h-2l-1-2v-12l4-6z" fill="#012855"/>
<path transform="translate(1463,1062)" d="m0 0 3 3v2h-2v2h-171v1l-25-1-4-2 2-1 2 1v-3l-4-1h7v2l6-1 8 1h64v1l-9 1 24 1v-2l20-1h37l40-1z" fill="#012855"/>
<path transform="translate(1076,951)" d="m0 0h17l1 4-1 2-8 1-3 5v7l3 3 5 2v3l-1 2h-4v-2l-2 1-2 7 1 8 1 3 4 3h5l-1 4-12-1v-2l-4 1-1-4h-2v-42l2-4z" fill="#012855"/>
<path transform="translate(134,943)" d="m0 0 8 1 6 5 7 11 2 10v10l-2 13-4 6-9 7-4 1h-8l-6-4-4-4 1-2 7 3-1 3h8l2 1-1-4-4 1v-2h-2l1-3 2 2h7l1 3h-3l1 1 7-3 5-5 2-8v-19l-2-9-3-1-1-3-7-3h-10l-5 2-3 4h-2l-1 7-3 7-1 6 2 9 2 5-2 2-7-14-1-13 6-4 5-8 8-9z" fill="#DDE7F1"/>
<path transform="translate(82,950)" d="m0 0h8l10 5 3 4-1 3-14-6-5 2-3 3-3 9v13l1 9h2l4 6v2l5 1 2 5-9-2-5-4-3-2v-2h-2l-3-7-2-9v-7l3-11 4-6 4-3z" fill="#012855"/>
<path transform="translate(1026,947)" d="m0 0 8 1 4 4 3 13h5l3-9 4-4 6-2 3 5-1 7-3 4-4 20-8 17h-5l-5-8-5-14-1-9-7-12v-9zm2 5-2 1 3 11 4 13 5 17 3 6 2-1 5-6 5-18 4-15v-5l-5 1-4 14-2 3-4-2-4-11-2-5-3-3z" fill="#D3E0ED"/>
<path transform="translate(981,1043)" d="m0 0 7 1 10 8 3 5v7l-3 5-19 2-7 1h-44v-1l5-1v-1h15l1 1h15l3-2h13v-1h16l1-7-1-7-6-3v-2l-5-1-4-1v2l-2 2-2 8 9-2 8 4-1 4-17-1-10 1h-151v-1l150-1 5-3h2l2-5 5-10z" fill="#FDFDFD"/>
<path transform="translate(1386,951)" d="m0 0h15l4 4-2 2-11 1-1 3v10l1 3 5 2v2h2v2l-8 1v14l1 5-1 3-6-1v-2l-4-4v-40z" fill="#012855"/>
<path transform="translate(755,670)" d="m0 0 7 1-1 5-6 8-4 5-9 7-10 9-10 7-9 7-13 11-2 1 2-4 13-12 14-10 11-9 5-5 4-3h2l2-5 4-5-1-4-9 2-16 3-17 6-19 5-10 4-8 2-8 4-56 16-20 6-11 4-6 1 3-3 13-4 8-3 15-4 9-3 43-12 7-4 14-4 10-4 16-4 14-5 20-5z" fill="#FDFDFD"/>
<path transform="translate(1079,677)" d="m0 0h13l7 1 12 4v2l7 2 3 3-2 1-14-7-8-2h-34l-13 4-13 6-9 7-7 6-10 14-8 15-6 21-3 16v40l2 15 6 21 7 16 1 3-3-1-4-9-4-10-6-20-2-23v-18l1-20 4-17 5-15 8-16 7-10 5-6 8-7 10-7 19-7 10-1z" fill="#8DB0D3"/>
<path transform="translate(637,951)" d="m0 0 6 1 1 1v49l-4 2-4-1-2-5-1-9v-28l1-8z" fill="#012855"/>
<path transform="translate(499,597)" d="m0 0 2 1 2 6 9 11 5 6 5 2 30 4v4l-30 12-11 4-7 3-14 4-10 4-13 4-10 4-13 3-11 5-12 3-8 3v-2l12-5 11-3 8-4 14-3 11-5 15-4 8-4 15-4 8-4 10-3 5-5 1-5-9-3-6-3-5-5-11-12-2-5z" fill="#709DC9"/>
<path transform="translate(624,631)" d="m0 0h4v2l-8 2-13 5-11 3-28 10-18 5-16 6-9 3-10 4-12 3-7 4-15 4-10 4-15 4-8 4-16 4-14 5-10 3-7 1 4-3 21-7 16-5 11-4 30-10 16-5 8-3 36-12 10-4 14-4 11-4 29-9z" fill="#99B9D8"/>
<path transform="translate(329,949)" d="m0 0 5 1 3 6 1 33 3 3 8 4 2 4-1 6-2 1h-13l2-5 5 1h7v-2l-12-3-2-8-1-38-5 1-2 4v21l1 20 4 8-6-2-3-5-1-2-1-10v-19l1-12z" fill="#D5E2EE"/>
<path transform="translate(541,1055)" d="m0 0 7 1 4 5v9l-6 11-6 4h-16l-3-1 1-4 13-4v-16z" fill="#E8EFF5"/>
<path transform="translate(605,1049)" d="m0 0h6l5 6 2 6 2 1h-5l-2-3-2-7-3-1-1 4h-2v2l-5 2-3 1-1 8 11-2h5v3l34 1 15 2h16l34-1 17-2 7-2 4 1-9 4-46 3-64-1-9-3h-14l-4-4v-6l5-5z" fill="#F5F8FA"/>
<path transform="translate(880,951)" d="m0 0h15l3 4-6 4-2 7v36l-4 2-3-1 1-3h-2v-35l-4-9v-4z" fill="#012855"/>
<path transform="translate(1210,946)" d="m0 0 10 1 12 10 2 4v9l-4 7-8 7-7 3-2 5-2 9-2 3-5 1-4-2-1-5-1-27v-15l3-6zm-5 5-4 4v39l2 7 4-1 2-1 1-6 1-9 11-2 7-6 1-5v-9l-3-7-8-4z" fill="#C1D4E7"/>
<path transform="translate(421,951)" d="m0 0 6 1 1 5v18l-1 23-3 5-5-4-1-3v-42z" fill="#012855"/>
<path transform="translate(1113,948)" d="m0 0 6 1 6 7 1 35 3 4 8 3 1 4-1 3-6 2-15-1-5-5-1-5v-41l2-6zm2 3-3 3v46l5 4h9l-3-10-1-10v-28l-2-4z" fill="#A7C2DC"/>
<path transform="translate(745,945)" d="m0 0h7l5 5 1 17v14l-1 18-2 5-2 2h-7l-3-4-2-18 1-26 1-9zm3 6-3 1-1 2v20l1 23 1 7h6l2-3 1-44-3-5z" fill="#DBE6F0"/>
<path transform="translate(1169,859)" d="m0 0h1l-1 7-5 9-4 6-13 15-12 10-8 4-7 5-8 2-9 4-18 2-8 2h-11l-29-4-12-5-10-4-14-9 3-1 16 10 13 4 6 2 13 2 13 1h12l20-2 16-5 8-3 4-3h3v-2l9-5 4-2v-2l6-4 7-9h2l1-4 4-4 4-8z" fill="#B2CAE1"/>
<path transform="translate(172,969)" d="m0 0 4 2 9 13 5 7 3 5 5 4 2-1v-19h1l2 11-1 12-1 1-7-1-6-8-3-5h-4l-4 11-4 3-5-2-2-4v-5l1 4 3 1 2-1v-11l-1-15z" fill="#EEF2F7"/>
<path transform="translate(1101,1034)" d="m0 0 4 1 1 3-2 4 1 4 8 11 1 1v6l-6 7-2 1h-7l-3-4 1-8 3-9v-6l-4-5 1-4z" fill="#EAF0F6"/>
<path transform="translate(1472,948)" d="m0 0h7l8 3 2 3-1 6-2 4v31l-2 7-2 2h-6l-3-7-1-31-4-8v-6zm4 3-5 2-1 2 4 6 2 33 1 5 6 1v-16l1-22 2-3 1-6-4-1z" fill="#86ACD1"/>
<path transform="translate(205,809)" d="m0 0 2 1-9 4-11 2-33 11-11 8-2 4h-2l-1 5-6-2-5-6v-10l3-10 2 1 3 14 7-1 12-7 19-5 16-5 13-3z" fill="#FDFDFD"/>
<path transform="translate(1255,947)" d="m0 0h7l10 8 2 3 1 10-3 9-5 5-11 6-2 12-2 4-7 1-3-4-1-9 1-35 3-7 2-2zm-8 4-3 3-1 40 2 7 4 2 3-6v-10l1-2 12-3v-2l4-2v-2h2l2-8-1-10-6-5-6-2z" fill="#BED2E5"/>
<path transform="translate(956,942)" d="m0 0 5 1 6 9 8 7 3 7v12l-1 12-4 8-9 7-4 1 2-4 3-1 3-5 5-3 1-5v-21l-3-9-10-5-5-1h-12l-3-1 2-4z" fill="#D9E4F0"/>
<path transform="translate(301,949)" d="m0 0h6l4 4 1 3 1 24-1 16-2 8-1 1h-8l-3-4-1-4v-41l3-6zm1 3-3 4v43h2l2 4 4-2 1-5 1-9v-31l-3-4z" fill="#F3F6F9"/>
<path transform="translate(78,1050)" d="m0 0h5l3 3 3 7 5 3 27 1-3 2h-31l-3-1-2-1-9-1-3-1-4 3 1 2h20v2l8-1 4 3-15-1-19-1-1-1 1-7 10-9z" fill="#6896C3"/>
<path transform="translate(649,1066)" d="m0 0h17v1l36 2v-1h25l1 2-17 2-34 1h-16l-15-2-13-1v-1l16-1z" fill="#5280AD"/>
<path transform="translate(1359,950)" d="m0 0 6 1 2 6v33l-1 11-3 4-10-1-4-2-13-1-6-1-5 1-1-4 5-1 1-8 4-2 1 9 2 2h14l13 4v-46l-4-2-6 2 1-3z" fill="#FDFDFD"/>
<path transform="translate(1164,955)" d="m0 0h7l3 4 4 11v17l-4 9-5 4h-8l-2-6-3-8v-15l3-9 3-6zm2 5-5 4-2 6v17l4 7 3 3 5-1 3-7 1-15-2-10-3-4z" fill="#D0DEEC"/>
<path transform="translate(1141,1058)" d="m0 0 6 1 2 9-2 7-8 10-10 2-7-2v-4l7-3 8-4 2-5 1-10z" fill="#FDFDFD"/>
<path transform="translate(1425,950)" d="m0 0 6 1 6 7 3 7h4l4-13 5 1 4 4-2 28v13l-3 5-5-1-5-6 1-2 6 5 3-1v-42h-3v15l-2 3-5-2-5-4-6-14-7-2z" fill="#6A99C7"/>
<path transform="translate(721,1063)" d="m0 0h10l-2 6h-17v1h-13l-34-2v-1l-16-1 1 3h-18v-2l-4-1 13-1h68z" fill="#012855"/>
<path transform="translate(367,994)" d="m0 0h5l3 4-1 9-5 9-2 4-7 1-1-1v-16l4-8z" fill="#B7CDE3"/>
<path transform="translate(109,802)" d="m0 0 9 6 9 4v1l-19 1-5 7-2 1h-7l-4-3v-5l5-4 12-6z" fill="#FDFDFD"/>
<path transform="translate(70,1061)" d="m0 0 18 3 4 1h37v2l4 2-1 1-33 1-4-2h-8v-2l-9 1h-12v-4z" fill="#133C69"/>
<path transform="translate(1231,1061)" d="m0 0h9l9 1 3-1h22l4 1 72 1-2 2-16 1h-47l-14-1v-3l-18 2-4 1h-24v-3z" fill="#9FBDDA"/>
<path transform="translate(1082,943)" d="m0 0 12 2 3 4 1 7-2 3-9 4-1 3 4 5 3 3-9-2-3-5 1-7 4-3 5-1 2 1-1-5h-16l-4 1 1-4 4-5z" fill="#DBE5F0"/>
<path transform="translate(975,701)" d="m0 0 2 1-1 7-8 12-5 7-7 16-7 28-1 7v30l2 15 4 10 4 13 1 3-3-1-6-18-3-8-2-22v-14l1-14 8-31 9-19 7-10 1-7-3-1v-2z" fill="#6B9AC7"/>
<path transform="translate(599,681)" d="m0 0h7l-3 2-36 12-16 5-22 6-19 6-17 5-21 7-8 4h-5l4-2 11-6 13-4 11-4 15-4 11-4 14-3 13-4 12-3 11-5 17-5z" fill="#FDFDFD"/>
<path transform="translate(1439,741)" d="m0 0 2 1 5 13 4 32v23l-3 28-10 25-3 3-4 8-10 10-11 8-4 1-1-2 6-3 9-7 9-8 5-9 5-10 4-10 3-10 2-21v-28l-3-27-5-14z" fill="#709DC9"/>
<path transform="translate(1296,972)" d="m0 0 11 1 1 1v6l-5 3-4 3v6l3 4 6 3 1 1v5l-8 2-10-1-4-2-2-4v-17h1l1 13 6 8h6l3-1 3 1v-2h-6l-4-6-1-9 2-6h5l1-5-6-3z" fill="#96B5D4"/>
<path transform="translate(1160,1031)" d="m0 0 4 2 1 1 1 18 6 8 4 3-10 1v5l-4-4-4-10v-20z" fill="#6A97C4"/>
<path transform="translate(1051,649)" d="m0 0 2 1-11 9 1 4h15l15-1 21 2 11 4 15 6 7 4 4 4-5-1-5-3-1-2-6-1-12-5-11-3-8-1h-23l-15 1-11-2 2-4 5-5z" fill="#87ADD1"/>
<path transform="translate(1200,801)" d="m0 0h1l1 100v9l5 3 29 1 2 2h-31l-6-3-2-3v-108z" fill="#6A99C7"/>
<path transform="translate(544,954)" d="m0 0 2 4v39l4 5 3 1 3-7 2 4-2 4 9 1v2h-13l-6-3-4-5-1-2-1-12v-11l2-17z" fill="#DEE8F1"/>
<path transform="translate(229,984)" d="m0 0 4 1 2 5v16l-1 1h-10l-5-4-2-3v-5l4-2 9-2z" fill="#DAE5F0"/>
<path transform="translate(783,973)" d="m0 0 10 1 1 1v5l-4 3-7 2v6l3 3 7 3 3 4-1 5-2 1h-17l-4-1-2-3v-6h1l1 5 6 2h9v-3l-6-4-1-3v-8l3-5 4-2v-3z" fill="#D2DFED"/>
<path transform="translate(1294,671)" d="m0 0h89l18 2 11 5 13 4 3 3h-3l-11-4-15-5-14-2-30-1h-61z" fill="#6D9BC8"/>
<path transform="translate(755,670)" d="m0 0 7 1-1 5-6 8-4 5-9 7-10 9-10 7-9 7-13 11-2 1 2-4 13-12 14-10 11-9 5-5 4-3h2l2-5 4-5-1-4-9 2h-8l1-2z" fill="#FDFDFD"/>
<path transform="translate(1290,1068)" d="m0 0h88l46 1v1l-108 1-44 1 1-3h17z" fill="#6A99C7"/>
<path transform="translate(1421,956)" d="m0 0 2 2v19l1 1v11h2l-1 4 1 1v-13l3-6 5 2 4 5 3 8-2 1-4-6-4 1-3 13-3 3-4-6-1-37z" fill="#7AA2CA"/>
<path transform="translate(1e3 727)" d="m0 0 1 3-4 9-6 24-1 7v40l2 15 6 21 7 16 1 3-3-1-4-9-4-10-6-20-2-23v-18l1-20 4-17 5-15z" fill="#6A99C7"/>
<path transform="translate(470,1063)" d="m0 0h4l-1 7-9 3h-50v-1l32-1 4-2v-2h-9l-5-1v-1h31z" fill="#5B89B7"/>
<path transform="translate(1455,887)" d="m0 0 2 1-9 8-13 8-17 7-7 3-28 3h-21l-3-2 1-1 30-1 18-2 20-7 14-7z" fill="#94B5D6"/>
<path transform="translate(1026,947)" d="m0 0 8 1 4 4 3 13h5l3-9 1-2 2 1-5 16-5 1-4-8-3-9-2-2h-7l3 9 1 8-4-5-3-5v-9z" fill="#D6E3EF"/>
<path transform="translate(624,631)" d="m0 0h4v2l-8 2-13 5-11 3-28 10-18 5-16 6-9 3-10 2 2-2 13-5 13-4 10-4 14-4 11-4 29-9z" fill="#88ADD2"/>
<path transform="translate(844,950)" d="m0 0h15l6 3-1 5-11 4-1 1v7l4 2 6 4-1 5-9 2-2 3-1 7h-1v-8l5-6-1-5h-2l-3-7 2-7 5-3 6-2-3-3h-13z" fill="#DFE8F2"/>
<path transform="translate(1254,958)" d="m0 0 7 1 3 3 1 7-3 5-7 4-4-1v-14z" fill="#D1DFED"/>
<path transform="translate(521,977)" d="m0 0h7l2 5v12l-1 3h-2v2h-3v2h-6v-6l1-2 1-14z" fill="#012855"/>
<path transform="translate(940,951)" d="m0 0 3 1h-2v46l1 5h10l3 1v-2l-4-2-1-9 2-1 2 7 5 2v-4l4-4 2-3 1 2-5 10h5l-1 2-3 1-4 4h-12l-5-2-2-3-1-44z" fill="#80A8CF"/>
<path transform="translate(1010,865)" d="m0 0 3 3 8 11 14 12 10 6 18 5 8 1h14l15-3 7-1-1 2-13 4-10 1h-13l-12-2-15-5-9-6-10-8-9-9-1-4h-2v-3l-2-1z" fill="#93B5D6"/>
<path transform="translate(1228,1064)" d="m0 0h25l-2 2-6 2 6 1v1h-48l-5-1v-1h17l2-1-15-1v-1z" fill="#042B58"/>
<path transform="translate(154,965)" d="m0 0h2l1 5v10l-2 13-4 6-9 7-4 1h-8l-6-4-4-4 1-2 7 3-1 3h8l2 1-1-4-4 1v-2h-2l1-3 2 2h7l1 3h-3l1 1 7-3 5-5 2-8z" fill="#CEDDEB"/>
<path transform="translate(453,975)" d="m0 0h2v2l4 2 4 5 3 11 6 5v2l6-1-2 4h-5l-7-7-4-10-5-1-3 10-2 1-1-3 1-4v-8l2-7z" fill="#D0DEEC"/>
<path transform="translate(863,939)" d="m0 0h7v4l-3 1-2 9-6-2h-19l2-4 7-3 11-3z" fill="#FDFDFD"/>
<path transform="translate(1016,605)" d="m0 0h7l4 5 1 5-3 6h-7l-6-5v-9z" fill="#FDFDFD"/>
<path transform="translate(1467,719)" d="m0 0 5 5 6 10 7 15 6 22 2 15v19l-2 18-2 8-2-3 2-10 1-9v-20l-2-20-3-10-4-13-8-16v-2h-2l-4-6z" fill="#9DBCD9"/>
<path transform="translate(1072,953)" d="m0 0 1 3v40l-1 2h2l1 4 4-1v2h16l2-2-1 4-4 2h-9l-8-1-4-5-2-12 1-31z" fill="#A7C2DC"/>
<path transform="translate(725,1058)" d="m0 0h8l4 4-3 1-5-1-14 3-80-1v-1l57-1 5-2 12 2 9-3z" fill="#FDFDFD"/>
<path transform="translate(397,707)" d="m0 0h7l-2 2-23 7-8 3-8 2-13 5-10 3-13 5-16 4-2-1 9-4 16-5 60-20z" fill="#A1BEDB"/>
<path transform="translate(761,1042)" d="m0 0 4 1 4 8 6 10-19 1 2-5 1-13z" fill="#FDFDFD"/>
<path transform="translate(229,945)" d="m0 0 6 1 6 6-1 3v-2l-7-2h-6l-6 3-3 5v14h2l3 5 7 5-1 2-6-2-5-5-5-9v-7l4-7 9-9z" fill="#D1DFED"/>
<path transform="translate(700,953)" d="m0 0 1 2v44l4 4 4-1 1-2 1-11 6 2 4 10v2l5 2v1h-5l-4-3-5 1-3 2-7-1-3-2v-49z" fill="#6D9BC8"/>
<path transform="translate(456,728)" d="m0 0 3 1-19 7-16 4-9 4-18 6-20 6-8 4-12 3-11 4h-6l4-2 28-9 8-4 13-3 19-7 14-6 18-4z" fill="#FDFDFD"/>
<path transform="translate(789,1060)" d="m0 0 9 1 3 2-5 1h-21l-4-1h-8l-9 2h-10l1 4-10-1-6 1 2-6-7 1 2-2 6-1 6 2 24-2h24z" fill="#8DB1D4"/>
<path transform="translate(878,950)" d="m0 0h17l-1 2h-16l5 14v30l-1 4h2l1 3 4-1v-36l1-5h1l1 40-2 5h-6l-3-4-1-4v-33l-3-8v-6z" fill="#79A3CC"/>
<path transform="translate(1390,947)" d="m0 0h11l5 5v6l-4 3-7 1-1 1v7l8 2-1 2-9-1v-2h-2v-10l2-4 11-1v-3h-2v-2l-3 1h-10l-4-2z" fill="#D6E2EE"/>
<path transform="translate(258,954)" d="m0 0 2 3v31l1 12 5 4 2 1 1-4 2-5-2-1h3v8l8 2-1 2h-14l-5-2-2-7-1-15-1-5v-16z" fill="#BBD0E4"/>
<path transform="translate(1345,683)" d="m0 0 22 1 13 1 7 1 14 7 3 3-9-2-8-5-24-2h-24l-6 3-3 8h-1v-8l2-5 2-1z" fill="#6A99C7"/>
<path transform="translate(1329,948)" d="m0 0 5 1 10 15 5 1 4-10 1 4-2 10-3 2h-7l-4-6-4-12-6-1-3 2-1 13h-1l-1-11 3-6z" fill="#CDDCEB"/>
<path transform="translate(1484,1033)" d="m0 0 4 1 1 6v23l-4 1-3-10v-19z" fill="#FDFDFD"/>
<path transform="translate(163,1068)" d="m0 0h38l9 1v1l-85 2h-26v-1l8-1 51-1z" fill="#6A99C7"/>
<path transform="translate(1253,1035)" d="m0 0 5 1 5 6-1 5-2 1h-12l-2-2 1-6z" fill="#97B3CF"/>
<path transform="translate(1167,1070)" d="m0 0h18l11 2h84v1l-97 2-14-2z" fill="#FBFBFC"/>
<path transform="translate(271,982)" d="m0 0h9l-5 4-1 1v5l9 7 1 5-4 2-8-3-1-8-2-3v-8z" fill="#FCFCFC"/>
<path transform="translate(336,956)" d="m0 0h1l1 33 3 3 8 4 2 4-1 6-2 1h-13l2-5 5 1h7v-2l-12-3-2-7z" fill="#E6EDF4"/>
<path transform="translate(956,942)" d="m0 0 5 1 6 9 1 2-12-2h-12l-3-1 2-4z" fill="#E8EEF5"/>
<path transform="translate(99,991)" d="m0 0 5 1-1 7-8 7-2 1h-11l-6-4-2-2 1-3 6 4 7 2v2h3v-5l4-4 3-5z" fill="#93B3D3"/>
<path transform="translate(604,1029)" d="m0 0h9l3 4-1 5-9 2-7-2-2-4 3-4z" fill="#FDFDFD"/>
<path transform="translate(1169,859)" d="m0 0h1l-1 7-5 9-4 6-13 15-12 10-8 4-7 5-8 2-7 1 1-2 11-3 8-5h3v-2l9-5 4-2v-2l6-4 7-9h2l1-4 4-4 4-8z" fill="#A0BDDA"/>
<path transform="translate(503,595)" d="m0 0 22 1 11 2 43 3v1h-40l-21-3-18-2z" fill="#AFC8E0"/>
<path transform="translate(123,953)" d="m0 0v3l-3 1-1 7-3 7-1 6 2 9 2 5-2 2-7-14-1-13 6-4 4-6z" fill="#D5E2EE"/>
<path transform="translate(1383,951)" d="m0 0 3 1-4 4v42l-2 1-2-11v-30l3-6z" fill="#B2CAE1"/>
<path transform="translate(613,951)" d="m0 0 4 1 1 2v48l-2 4h-5l-5-6-3-6 2-3 2 7 2 1 3 3 4-1v-46l-3-1-1 16-4 4-3-3h4l1-16 1-3z" fill="#80A8CF"/>
<path transform="translate(1213,957)" d="m0 0 6 1 2 5v8l-2 5-7 2-2-1v-16l1-3zm0 6-1 6 2 3 4-2v-6z" fill="#CBDBEA"/>
<path transform="translate(712,958)" d="m0 0 6 1 3 5-1 7-2 3-7-1-1-1v-12z" fill="#D0DEEC"/>
<path transform="translate(301,949)" d="m0 0h6l2 2v5l-3-3-5 1-1 2v41l-1 2h2l3 3 4-3-1 4-5 1-4-3-1-4v-41l3-6z" fill="#A6C2DD"/>
<path transform="translate(1163,946)" d="m0 0h8l8 6 5 4 4 9v23l-3 8-1-2 1-3v-26l-6-9v-2h-3v-2l-4-1v-2l-9 1-4 1z" fill="#D0DFEC"/>
<path transform="translate(1200,955)" d="m0 0h1l1 14v25l2 6 5-1-3 6-6-2-1-5-1-27z" fill="#C5D7E7"/>
<path transform="translate(1029,964)" d="m0 0 2 2 7 24 3 9 6-5 3-11h1v9l-5 11h-5l-5-8-5-14z" fill="#B4CBE2"/>
<path transform="translate(1123,954)" d="m0 0 2 2 1 35 3 4 8 3 1 4-1 3-4-1-1-3-8-5-1-2z" fill="#FDFDFD"/>
<path transform="translate(499,597)" d="m0 0 2 1 2 6 9 11 5 6 5 2 30 4v4l-4 2-4-1 5-2v-1l-27-3-6-3-5-5-11-12-2-5z" fill="#709DC9"/>
<path transform="translate(203,746)" d="m0 0h2v2l-7 3-13 3-13 6-5 2-7 16v7h11l-3 2-9 1-2-3v-8l4-10 4-6 8-4 13-6 13-3z" fill="#8BB0D3"/>
<path transform="translate(507,947)" d="m0 0h10l12 9v6l-4 1-7-3 4-1 5 2-1-5h-2v-2l-5-1-6-2h-6l-5 3-5 4-2 4-1-4 1-3z" fill="#D9E5F0"/>
<path transform="translate(1140,1059)" d="m0 0 4 1 2 4v6l-4 4-3 7-8 4h-5v-3h3l1-2 2 1 1-2 3-2 3-8z" fill="#628FBD"/>
<path transform="translate(605,1049)" d="m0 0h6l5 6 2 6 2 1h-5l-2-3-2-7-3-1-1 4h-2v2l-5 2-3 1-1 8 7-1 1 2h-10l-1-2v-6l5-5z" fill="#F5F7FA"/>
<path transform="translate(980,1067)" d="m0 0h16l2 2-19 2-7 1h-44v-1l5-1v-1h15l1 1h15l3-2h13z" fill="#6A99C7"/>
<path transform="translate(242,1061)" d="m0 0 26 2v2l-8 1h-34l-6-2v-2h16z" fill="#B6CDE3"/>
<path transform="translate(605,1056)" d="m0 0h6l1 4-3 1v4l3 1-10 2h-6v-6l5-5z" fill="#032A57"/>
<path transform="translate(1242,957)" d="m0 0h1l1 37 2 7 3 1 3-10 1-6 5-2 4 1-6 3-2 12-2 4-7 1-3-4-1-9z" fill="#EEF3F7"/>
<path transform="translate(527,626)" d="m0 0 22 2v3l-5 1v2l-13 4-4 1 4-6v-4z" fill="#F4F7F9"/>
<path transform="translate(1052,681)" d="m0 0m-2 1 3 1-3 2-13 6-9 7-7 6-10 14-5 10-2-2 5-10 7-10 5-6 8-7 10-7z" fill="#84AAD0"/>
<path transform="translate(464,1040)" d="m0 0h9l7 2-1 5-5 3-9-2-2-2v-5z" fill="#EBF0F6"/>
<path transform="translate(1210,946)" d="m0 0 10 1 8 7-1 2-8-4h-14l-3 3h-2v7l-2-1 1-8 4-4z" fill="#D7E3EF"/>
<path transform="translate(78,951)" d="m0 0h2l-1 3-4 2-4 6-3 11v9l3 11 1 3h2l-1 4-5-7-3-6-1-5v-8l3-9 5-9z" fill="#C9D9EA"/>
<path transform="translate(70,1061)" d="m0 0 18 3 4 1h13v1l-10 1-3 2h-5v-2l-9 1h-12v-4z" fill="#012855"/>
<path transform="translate(110,1061)" d="m0 0 10 1 13 1h22l6 1v1l-24 1-8 1v-2l-35-1v-1z" fill="#FDFDFD"/>
<path transform="translate(767,724)" d="m0 0 2 3 2 5v8l-6 4-9 4-4 1 5-8 8-5 1-2z" fill="#FDFDFD"/>
<path transform="translate(899,953)" d="m0 0h1v5l-5 6-1 2v33l-2 5-1-3v-40l5-3 2-1z" fill="#FDFDFD"/>
<path transform="translate(1113,948)" d="m0 0 6 1 4 4v41l-2-4v-34l-1-3-7-1-1 21-2 2v-20l2-6z" fill="#B0C8E0"/>
<path transform="translate(668,1068)" d="m0 0h19l15 1v-1h25l1 2-17 2h-15v-1l-28-1z" fill="#6A99C7"/>
<path transform="translate(1391,995)" d="m0 0 5 5-1 2 3-1 1-2 5 1-1 5-1 1h-14l-6-3-1-5 5 2 2 2 3 1z" fill="#92B2D2"/>
<path transform="translate(514,668)" d="m0 0h6l-1 2-16 4-7 4-15 4-10 4h-7l2-2 24-8 11-4z" fill="#9FBDDA"/>
<path transform="translate(367,996)" d="m0 0 5 1v6l-1 2h-2l-2 11-5 1-1-4 2-5 2-11z" fill="#012855"/>
<path transform="translate(1460,1059)" d="m0 0h6l1 1v7l-4-4-2 2-55-1v-1l33-1h11z" fill="#D7E2EE"/>
<path transform="translate(697,731)" d="m0 0h1v9l-2 12-5 8-4 2-6-2-3-4v-9h1l3 9 3 1 5-3 4-6z" fill="#FDFDFD"/>
<path transform="translate(1354,1061)" d="m0 0 11 1 3 1v2h-5l-1 3h-22l-1-2 9-1 3-3z" fill="#6F94BA"/>
<path transform="translate(594,977)" d="m0 0 8 6 3 7-2 4-3-7-3-1-3 3-1 11-2 4-4-1 3-4 2-19z" fill="#EBF1F6"/>
<path transform="translate(672,997)" d="m0 0 9 1 5 1v6l-3 2h-17l-6-2 1-4 4 3h9l9-1-9-2z" fill="#A5C1DC"/>
<path transform="translate(1168,1063)" d="m0 0h5l2 1h11l2 2h7l1 2h-17v2h-6l-4 1-3-1v-6z" fill="#012855"/>
<path transform="translate(1359,950)" d="m0 0 6 1 2 6v33l-1 6h-1l-1-11v-30l-4-2-6 2 1-3z" fill="#A4C0DC"/>
<path transform="translate(1310,953)" d="m0 0h1v5l-2 2-10 2v6l5 3 5 2v6h-1l-1-5-12-2v-11l3-3 11-2z" fill="#D9E4EF"/>
<path transform="translate(555,991)" d="m0 0h2l4 4 6 3 2 5-2 3-11-1v-3l1-6h-2l-1-3z" fill="#F9FAFB"/>
<path transform="translate(83,946)" d="m0 0h8l14 10 3 6v3h-5l1-7-14-7h-11l2-4z" fill="#D3E0ED"/>
<path transform="translate(781,994)" d="m0 0 3 3 9 2 3 2-1 5-2 1h-17l-4-1-2-3v-6h1l1 5 6 2h9v-3l-6-4z" fill="#8CB0D3"/>
<path transform="translate(1160,1031)" d="m0 0 4 2 1 1 1 18 6 8 4 3-8-1-5-4-1-5v-14z" fill="#FDFDFD"/>
<path transform="translate(1425,950)" d="m0 0 6 1 6 7 3 7h4l2-8h1v14l-6-1-5-4-5-12-7-2z" fill="#DFE8F2"/>
<path transform="translate(981,1043)" d="m0 0 7 1 10 8 3 5v7l-2 4h-3l1-8-1-7-6-3v-2l-5-1-4-1v2l-4 4 1-7z" fill="#9FBCD8"/>
<path transform="translate(472,1053)" d="m0 0 4 2 1 9-3 6-1-2 1-5-7 3h-7v-2l7-3z" fill="#95B5D5"/>
<path transform="translate(839,951)" d="m0 0 4 1-3 1-1 4v40l2 4 4 1v2l-7-1-2-11v-34z" fill="#80A8CF"/>
<path transform="translate(1231,1061)" d="m0 0h9l9 1 3-1h22l4 2h-19l-10 2h-24v-3z" fill="#BCD1E5"/>
<path transform="translate(763,793)" d="m0 0h9l5 5-2 1-5-2h-12l-7 3-11 8-7 8v-3l6-8 14-9z" fill="#FDFDFD"/>
<path transform="translate(735,1067)" d="m0 0 4 1-9 4-46 3h-6v-3l33-1 17-2z" fill="#FDFDFD"/>
<path transform="translate(848,962)" d="m0 0h1l1 8 9 4 3 2-1 5-9 2-2 3-1 7h-1v-8l5-6-1-5h-2l-3-7z" fill="#739FCA"/>
<path transform="translate(964,988)" d="m0 0 2 2-5 10h5l-1 2-3 1-2 3h-6l1-4-4-2-1-9 2-1 2 7 5 2v-4l4-4z" fill="#6A99C7"/>
<path transform="translate(676,980)" d="m0 0 6 1-2 3-6 1v7l4 3 7 2-4 2h-6l-4-2-1-9 3-7z" fill="#B0C9E1"/>
<path transform="translate(976,1056)" d="m0 0 1 2 9-2 8 4-1 4-23-1v-1l8-1v-2h-2z" fill="#6A99C7"/>
<path transform="translate(220,995)" d="m0 0 5 1 9 3h1v7h-6l-7-3-2-5z" fill="#042B58"/>
<path transform="translate(1472,948)" d="m0 0h7l7 2v1l-14 2-1 2 4 6v8l-2 5h-1v-8l-4-8v-6z" fill="#AEC7DF"/>
<path transform="translate(1441,846)" d="m0 0h2l-3 10-4 8-3 5-4 6-9 9-11 8-4 1-1-2 6-3 9-7 9-8 5-9 5-10z" fill="#81A9CF"/>
<path transform="translate(670,832)" d="m0 0 18 1v1l-22 1-12 4-7 5-5 8-2-3 2-6 8-5 14-5z" fill="#FDFDFD"/>
<path transform="translate(725,1058)" d="m0 0h8l4 4-3 1-5-1-14 3-6-1 3-3 6-2z" fill="#ECF2F7"/>
<path transform="translate(1484,1081)" d="m0 0 5 1 1 1v7l-3 3h-5l-2-3 1-7z" fill="#8FB2D4"/>
<path transform="translate(130,996)" d="m0 0 3 2h7l1 3h-3l5 1-2 1v3l-3 1h-8l-6-4-4-4 1-2 7 3-1 3h8l2 1-1-4-4 1v-2h-2z" fill="#6594C2"/>
<path transform="translate(1474,969)" d="m0 0h1l1 7 1 23h5v2l-4 1-5-5v-27z" fill="#83A7CA"/>
<path transform="translate(1287,949)" d="m0 0m-1 1v3l-1 44h-1l-2-24v-16l3-6z" fill="#EBF0F6"/>
<path transform="translate(1101,1034)" d="m0 0 4 1 1 3-2 4 1 5-4 9-2 4-1-3 2-6v-6l-4-5 1-4z" fill="#F0F4F8"/>
<path transform="translate(1185,987)" d="m0 0 1 4-3 8-8 7h-8l-3-4-1-2 7-2 3-2-1 8 4-3 2-1 6-10z" fill="#93B5D6"/>
<path transform="translate(644,953)" d="m0 0h1v50l-2 3h-7l-3-3v-12h1l1 8 2 4h5l1-2z" fill="#739FC9"/>
<path transform="translate(197,949)" d="m0 0h4l2 5v31l-2 1-1-31-2-1-2 2z" fill="#D6E2EE"/>
<path transform="translate(1105,1055)" d="m0 0 1 2h2l2 9h-2l-1 2h-5l-3-1-1-4 2-1 1-5z" fill="#012855"/>
<path transform="translate(761,1042)" d="m0 0 4 1 2 8-1 5-4 1v-2h-3v-11z" fill="#A4C0DB"/>
<path transform="translate(533,636)" d="m0 0 3 1-10 5-13 4-9 4-14 4-4 1 1-3 9-3 13-4 6-3 16-5z" fill="#76A1CB"/>
<path transform="translate(1455,887)" d="m0 0 2 1-9 8-13 8-15 6-11 3-3-1 27-10 15-9z" fill="#7EA6CE"/>
<path transform="translate(1e3 727)" d="m0 0 1 3-4 9-6 24-2 21h-1v-20l4-17 5-15z" fill="#6A99C7"/>
<path transform="translate(666,618)" d="m0 0 1 3-7 3-15 4-11 4h-6v-2l33-10z" fill="#7FA7CE"/>
<path transform="translate(1068,1059)" d="m0 0 5 2 1 6-4 4-5-1-1-1v-7z" fill="#5A81A9"/>
<path transform="translate(1085,957)" d="m0 0 8 1v2l-6 3-1 3 4 5 3 3-9-2-3-5 1-7z" fill="#ECF2F7"/>
<path transform="translate(74,1032)" d="m0 0h9l3 2-1 4-4 2-7-1-3-4z" fill="#9EB7D1"/>
<path transform="translate(541,1057)" d="m0 0 4 1 2 3v7l-5 1-4-1-1-6z" fill="#012855"/>
<path transform="translate(200,980)" d="m0 0h1l2 11-1 12-1 1-7-1-6-8-1-3 4 2 7 6 2-1z" fill="#DCE6F0"/>
<path transform="translate(1393,958)" d="m0 0h9l2 2-9 2-1 1v7l8 2-1 2-9-1v-2h-2v-10h2z" fill="#ECF1F6"/>
<path transform="translate(786,1040)" d="m0 0h6l2 2-1 5-4 3-5-1-1-7z" fill="#779BC0"/>
<path transform="translate(540,1073)" d="m0 0 5 1-1 3h-2l-1 4-4 3h-10l-2-2 9-2v-2l4-2z" fill="#325D8A"/>
<path transform="translate(373,996)" d="m0 0 2 2-1 9-5 9-2 4-7 1-1-4 7 1 1-8 2-5h2v-2h2z" fill="#D9E4EF"/>
<path transform="translate(1007,982)" d="m0 0h2v2l-6 2-1 4 3 4 7 3 2 2v6l-2-3-1-2-8-2-3-3v-11z" fill="#FDFDFD"/>
<path transform="translate(975,701)" d="m0 0 2 1-1 7-8 12-5 7-2-1 7-11 3-6v-4l-3-1v-2z" fill="#80A8CF"/>
<path transform="translate(729,1061)" d="m0 0 9 2h9l-3 3 1 3-10-1-6 1 2-6-7 1 2-2z" fill="#6897C5"/>
<path transform="translate(77,989)" d="m0 0 5 2 6 5 5-1 3-3 2 1-4 7-2 1-2 4-2-4-4-1-4-6v-2h-2z" fill="#BDD1E5"/>
<path transform="translate(1220,981)" d="m0 0 4 2-9 4-2 5-2 9-2 3-3-1 2-2 1-8 1-7 3-3z" fill="#D0DEEC"/>
<path transform="translate(592,975)" d="m0 0 4 1 5 5-1 2-6-5-1 2-2 19-3 4h-2l-1-2v-6l5 2-1-6 2-14z" fill="#6D98C2"/>
<path transform="translate(1430,977)" d="m0 0 7 4 4 9-2 1-4-6-4 1-2 10h-1v-17z" fill="#E9EFF5"/>
<path transform="translate(639,757)" d="m0 0 5 2 2 4v7l-5 4-8 3-3-1 8-4 3-4z" fill="#FDFDFD"/>
<path transform="translate(1385,672)" d="m0 0h9l10 2 8 4 13 4 3 3h-3l-11-4-15-5-14-2z" fill="#8FB2D4"/>
<path transform="translate(1490,784)" d="m0 0h2l1 2v19l-2 18-2 8-2-3 2-10 1-9z" fill="#98B8D8"/>
<path transform="translate(1094,665)" d="m0 0 7 1 19 8 7 4 4 4-5-1-5-3-1-2-6-1-12-5-6-2v-2z" fill="#8CB0D3"/>
<path transform="translate(999,984)" d="m0 0h1l1 13 10 2 2 3v4h-16l1-2h10l-8-6-1-2z" fill="#6997C4"/>
<path transform="translate(1091,981)" d="m0 0 3 1-9 5 1 5 6 5 4 2-1 2-10-4-3-4v-10l1-1z" fill="#FDFDFD"/>
<path transform="translate(1296,972)" d="m0 0 11 1 1 1v6l-5 3-6 1-2 3 1-6h5l1-5-6-3z" fill="#6D9BC8"/>
<path transform="translate(1050,954)" d="m0 0 2 1-5 16-5 1-3-5 1-3 6 1 3-9z" fill="#EEF2F7"/>
<path transform="translate(553,654)" d="m0 0h3v2l-16 6-13 4-9 3-3-1 15-6 13-4z" fill="#7AA4CD"/>
<path transform="translate(1136,1075)" d="m0 0 1 2-3 3-5 2h-3l2 2 6-1 4-2-1 3-5 3-10-2v-4l7-3z" fill="#86A8CA"/>
<path transform="translate(608,1051)" d="m0 0 4 1 3 8 2 4-2 4h-3v-3h-3l-1-6h3v-3h-6z" fill="#295380"/>
<path transform="translate(743,971)" d="m0 0 2 3 1 23 1 6 4 1v1h-6l-2-3z" fill="#6A99C7"/>
<path transform="translate(417,955)" d="m0 0 2 1v41l5 6v2l-6-1-2-5z" fill="#6A99C7"/>
<path transform="translate(1123,994)" d="m0 0 1 2 5 2 4 3 2 5h-10l-8-1v-1h9l-3-7z" fill="#6594C2"/>
<path transform="translate(1103,629)" d="m0 0 2 1-9 7-12 5-11 3h-7v-1l15-4 12-5z" fill="#FDFDFD"/>
<path transform="translate(1391,971)" d="m0 0 1 2h11l1 1v5l-4 3h-8l-1 2v-3l8-1v-2h-2v-2l-6-2z" fill="#6B9AC7"/>
<path transform="translate(78,1050)" d="m0 0h5l3 3 3 7 1 2-4-2-3-3-2-4-3-1-2 4-6 3-5 4 2-4z" fill="#FDFDFD"/>
<path transform="translate(229,945)" d="m0 0 6 1 6 6-1 3v-2l-7-2h-6l-2 1-3-2 4-4z" fill="#DAE5F0"/>
<path transform="translate(308,737)" d="m0 0h6l-2 2-19 6-8 4-3-1 3-1v-2l19-7z" fill="#BACFE4"/>
<path transform="translate(1051,649)" d="m0 0 2 1-11 9 1 4 8 1v1l-12 1-5-1 2-4 5-5z" fill="#FDFDFD"/>
<path transform="translate(193,776)" d="m0 0h6l-2 2-20 6-8 4-8 1 2-2 8-1v-2l10-4z" fill="#BFD2E6"/>
<path transform="translate(218,994)" d="m0 0h6l7 3-2 2-9-4 3 8 11 3v1h-10l-5-4-2-3v-5z" fill="#AFC8E0"/>
<path transform="translate(270,994)" d="m0 0 2 1v8l8 2-1 2h-14l-4-5 2-1 3 3 2 1 1-4 2-5-2-1z" fill="#6492C0"/>
<path transform="translate(419,949)" d="m0 0m-1 1 1 4-1 1-1 41h-1l-1-21v-18z" fill="#F8FAFB"/>
<path transform="translate(1104,899)" d="m0 0 3 1-10 4-14 2h-13v-2l22-2z" fill="#81A8CF"/>
<path transform="translate(995,829)" d="m0 0h2l6 19 6 14 1 3-3-1-4-9-4-10-4-13z" fill="#78A3CC"/>
<path transform="translate(393,833)" d="m0 0h2l-2 7-3 2h-7l-5-5h8z" fill="#FDFDFD"/>
<path transform="translate(172,969)" d="m0 0 4 2v3l-2-1v10l1 13-3 5-4-1 1-3h3v-11l-1-15z" fill="#6492C0"/>
<path transform="translate(980,1067)" d="m0 0h16l2 2-19 2-11 1-4-3 3-1h13z" fill="#5B88B6"/>
<path transform="translate(397,707)" d="m0 0h7l-2 2-23 7-5 2h-3v-2z" fill="#AAC5DE"/>
<path transform="translate(1050,983)" d="m0 0h1v9l-5 11h-5l-2-3 1-3 2 2 5-6z" fill="#A9C3DD"/>
<path transform="translate(1399,893)" d="m0 0 3 1-9 5-11 2-14 1-7-1v-1l26-2 8-3z" fill="#A4C0DC"/>
<path transform="translate(99,991)" d="m0 0 5 1-2 5-5 4-4 1-2 3 1-5 3-3 3-5z" fill="#396492"/>
<path transform="translate(1147,985)" d="m0 0 2 2 2 7v2l4 2 4 4 1 2 13 2v1h-11l-9-6-4-5-2-6z" fill="#A9C4DE"/>
<path transform="translate(556,996)" d="m0 0 2 4-2 4 9 1v2h-13l-5-4-2-6 7 6 1-1z" fill="#6A99C7"/>
<path transform="translate(493,994)" d="m0 0 10 5 3 4 2 2 4 2h-6l-9-6-4-4z" fill="#B3CBE2"/>
<path transform="translate(462,991)" d="m0 0h3l2 5 5 4v2l6-1-2 4h-5l-7-7-2-4z" fill="#CCDCEB"/>
<path transform="translate(1e3 902)" d="m0 0 4 1 14 8 9 3 7 3v1l-7-1-11-4-16-10z" fill="#88ADD2"/>
<path transform="translate(578,791)" d="m0 0 3 1-13 6-8 5-6 2h-12v-1l14-2 9-5 3-3z" fill="#FDFDFD"/>
<path transform="translate(1379,685)" d="m0 0 8 1 14 7 3 3-9-2-8-5-24-2v-1z" fill="#A6C2DD"/>
<path transform="translate(966,1063)" d="m0 0h4v2l-2 1h-30v-2z" fill="#6A99C7"/>
<path transform="translate(601,1032)" d="m0 0h14l-1 4-1 1h-9l-3-2z" fill="#517EAB"/>
<path transform="translate(852,982)" d="m0 0 4 1-4 4 1 7 3 3 7 3 1 4-11-6-4-5v-7z" fill="#FDFDFD"/>
<path transform="translate(1159,966)" d="m0 0 1 4v24l-2-1-2-9v-13z" fill="#C9DAEA"/>
<path transform="translate(1053,952)" d="m0 0h5l1 1v6l-3 4 1-8-4 1-4 14-3 4-3-1 4-4 5-16z" fill="#719DC9"/>
<path transform="translate(725,706)" d="m0 0m-1 1m-1 1v3l-5 4-11 9-8 7v-3l14-13z" fill="#F6F8FA"/>
<path transform="translate(1297,983)" d="m0 0 4 1-2 2v6l3 4 5 2v1l-8-1-3-3v-3h-2v-5h2z" fill="#F1F4F8"/>
<path transform="translate(64,1063)" d="m0 0 3 4h20v2l8-1 4 3-15-1-19-1-1-1z" fill="#6F9CC7"/>
<path transform="translate(605,1049)" d="m0 0m-1 1m-1 1m-1 1m-1 1m-1 1m-1 1m-1 1 3 2-4 2-1 8 7-1 1 2h-10l-1-2v-6z" fill="#C1D4E7"/>
<path transform="translate(282,746)" d="m0 0 3 1-5 3-11 3-10 4-4-1 9-4z" fill="#A7C2DD"/>
<path transform="translate(916,723)" d="m0 0h11l7 2v1h-14l-12 3-5 1 3-3z" fill="#FDFDFD"/>
<path transform="translate(1295,992)" d="m0 0 4 5 9 2v5l-2 1h-7l1-2 5 1v-2h-6l-4-6z" fill="#6A99C7"/>
<path transform="translate(564,980)" d="m0 0 4 2-3 2-7 2-3 6h-1v-9l1-2z" fill="#CFDDEC"/>
<path transform="translate(1057,950)" d="m0 0 4 2 1 7-6 12h-1v-8h2l1-10-3-2z" fill="#F5F7FA"/>
<path transform="translate(1324,954)" d="m0 0 2 1v23l-1 7-2 1z" fill="#83AAD0"/>
<path transform="translate(1045,898)" d="m0 0 7 1 11 3 8 1-1 2h-9l-16-5z" fill="#A5C1DC"/>
<path transform="translate(428,696)" d="m0 0m-2 1 4 2-12 4-10 3-7 1 4-3z" fill="#A4C1DC"/>
<path transform="translate(1159,990)" d="m0 0 4 2 3 4 5-1 2-1-2 4-2 2h-8z" fill="#EDF2F7"/>
<path transform="translate(1e3 969)" d="m0 0 3 3 9 2v6l-5 3-7 1 1-3 8-1v-3l-8-3z" fill="#6A99C7"/>
<path transform="translate(952,964)" d="m0 0 1 2v25l-4-4v-9l2-13z" fill="#B8CEE3"/>
<path transform="translate(1081,983)" d="m0 0h1l1 10 4 4 9 4-1 3h-4v-3h-5l-1-3-3-1-2-7z" fill="#6492C0"/>
<path transform="translate(1272,968)" d="m0 0h1v7l-4 6-5 3-10 2-1 7h-2v-6l2-3 12-2v-2l4-4h2z" fill="#84ABD0"/>
<path transform="translate(424,828)" d="m0 0 3 1-4 4-7 1-5-5z" fill="#FDFDFD"/>
<path transform="translate(830,678)" d="m0 0 6 1 8 4h9l-3 3-8 1-9-7z" fill="#FDFDFD"/>
<path transform="translate(881,979)" d="m0 0h2v17l-2 4-1-2v-16z" fill="#95B6D7"/>
<path transform="translate(350 1e3)" d="m0 0 1 3-3 3h-13l2-5 5 1h7z" fill="#BACFE4"/>
<path transform="translate(264,854)" d="m0 0 6 3h9l-5 5h-6l-3-3z" fill="#FDFDFD"/>
<path transform="translate(1448,952)" d="m0 0 4 1-3 3v15l-2 3-5-2-5-4 1-2 5 4 4 1v-17z" fill="#75A0CB"/>
<path transform="translate(1163,946)" d="m0 0h8l8 6-2 1-5-2v-2l-9 1-4 1z" fill="#F1F5F8"/>
<path transform="translate(1169,859)" d="m0 0h1l-1 7-5 9-4 6-5 6h-2l1-3h2l1-4 4-4 4-8z" fill="#9AB9D8"/>
<path transform="translate(578,646)" d="m0 0h3v2l-15 6-10 2v-2z" fill="#83AAD0"/>
<path transform="translate(472,1053)" d="m0 0 4 2 1 9-3 6-1-2v-12h-2l-1 2 1-4z" fill="#FDFDFD"/>
<path transform="translate(939,996)" d="m0 0 3 4 1 3h9l2 2 4 2h-12l-5-2-2-3z" fill="#A9C4DE"/>
<path transform="translate(507,996)" d="m0 0 4 5 7 3 1 3h-7l-4-1-1-7z" fill="#4975A3"/>
<path transform="translate(1429,975)" d="m0 0 5 2 2 4-6-3-1 1-1 20-3 3-2-4h3v-17z" fill="#8FB2D4"/>
<path transform="translate(154,965)" d="m0 0h2l1 5v10l-2 6h-1z" fill="#CCDBEB"/>
<path transform="translate(515,950)" d="m0 0 9 2 5 4v6l-4 1-7-3 4-1 5 2-1-5h-2v-2l-5-1z" fill="#95B6D6"/>
<path transform="translate(1152,887)" d="m0 0 2 1-10 11-9 7-2-1 5-5 3-1v-2l6-4z" fill="#BDD1E5"/>
<path transform="translate(530,625)" d="m0 0h8l14 2v4l-4 2-4-1 5-2v-1l-18-2z" fill="#6A99C7"/>
<path transform="translate(963,989)" d="m0 0 1 2-3 4h-2v4l-5-1-2-2v-5l4 2 4-1z" fill="#FDFDFD"/>
<path transform="translate(1334,685)" d="m0 0h25v1l-20 1-6 3-2 7h-1l1-10z" fill="#FDFDFD"/>
<path transform="translate(981,1043)" d="m0 0 7 1 4 4h-6l-5-2v2l-4 4 1-7z" fill="#C7D8E9"/>
<path transform="translate(781,991)" d="m0 0 12 6 2 4-11-3-3-4z" fill="#FDFDFD"/>
<path transform="translate(254,755)" d="m0 0v3l-13 5-2 1h-8l3-2 14-5z" fill="#9AB9D8"/>
<path transform="translate(120,997)" d="m0 0 8 3-1 3h5l5 4h-7l-6-4-4-4z" fill="#C2D5E7"/>
<path transform="translate(1453,992)" d="m0 0h2l-1 9-2 2-5-1-5-6 1-2 6 5 3-1z" fill="#A5C0D9"/>
<path transform="translate(1467,719)" d="m0 0 5 5 6 10 3 6v5l-3-4-4-10-1-3h-2l-4-6z" fill="#8BAFD3"/>
<path transform="translate(1172,996)" d="m0 0v3l1 7h-6l-3-4-1-2 7-2z" fill="#5885B3"/>
<path transform="translate(245,994)" d="m0 0v3l-6 8-4 1v-7h5l3-1z" fill="#CEDDEB"/>
<path transform="translate(714,993)" d="m0 0 3 1 2 6-1 4-5-1-2 1z" fill="#FDFDFD"/>
<path transform="translate(1146,968)" d="m0 0h1l1 6v9l-1 5-2-3-1-9z" fill="#CEDDEB"/>
<path transform="translate(963,969)" d="m0 0h2l2 10v6l-4 4z" fill="#C4D6E8"/>
<path transform="translate(844,950)" d="m0 0h15l6 3-1 4h-4v-3l-5-2h-11z" fill="#5E8CBA"/>
<path transform="translate(824,681)" d="m0 0h2l-2 5-4 3-3 1h-9l14-7z" fill="#FDFDFD"/>
<path transform="translate(470,1063)" d="m0 0h3l-1 5h-11l-13-2v-1h19z" fill="#012855"/>
<path transform="translate(970,995)" d="m0 0 4 2-8 7-6 2 2-4 3-1 3-5z" fill="#DDE7F1"/>
<path transform="translate(837,986)" d="m0 0h2v11l2 4 4 1v2l-7-1-2-11z" fill="#7EA5CC"/>
<path transform="translate(783,973)" d="m0 0 10 1 1 3-3 4h-6l2-2v-3z" fill="#6A99C7"/>
<path transform="translate(982,885)" d="m0 0 4 2 8 8 7 5v2l-4-2-9-7z" fill="#89AED2"/>
<path transform="translate(308,854)" d="m0 0 1 3-5 4-10 1-5-2 4-1 8-1 6-3z" fill="#FDFDFD"/>
<path transform="translate(712,818)" d="m0 0 9 1v1l-10 2-8 4-2-1 7-6z" fill="#FDFDFD"/>
<path transform="translate(1151,698)" d="m0 0 7 6 4 8-1 5h-3l1-2-1-7-4-3v-3h-2z" fill="#90B3D5"/>
<path transform="translate(1447,697)" d="m0 0 5 3 10 10 5 7v2h-2l-10-13-8-7z" fill="#76A1CB"/>
<path transform="translate(1097,680)" d="m0 0h9l5 2v2l7 2 3 3-2 1-14-7-8-2z" fill="#A9C4DE"/>
<path transform="translate(533,636)" d="m0 0 3 1-10 5-13 4h-2l1-3 17-5z" fill="#8DB0D3"/>
<path transform="translate(1099,1059)" d="m0 0 2 1-2 4 3 3h5l1 2h-11l-1-1 1-8z" fill="#7FA5CB"/>
<path transform="translate(976,1051)" d="m0 0 2 4-2 1v3h2v2l-10 2 6-9z" fill="#F9FAFB"/>
<path transform="translate(672,992)" d="m0 0 4 2 9 3-4 2h-6l-3-2z" fill="#FDFDFD"/>
<path transform="translate(780,962)" d="m0 0h1v5h2l3 3 7 3v1l-12-1-1-2z" fill="#D5E2EE"/>
<path transform="translate(672,997)" d="m0 0 9 1 5 1-1 4-9-1-4-3z" fill="#6291BF"/>
<path transform="translate(849,993)" d="m0 0 7 6 6 3 1 3h-9v-1l3-1-5-2-3-5z" fill="#6796C4"/>
<path transform="translate(1403,979)" d="m0 0v3l-10 4-2 9h-1v-11h2v-2l10-2z" fill="#D8E4EF"/>
<path transform="translate(1454,955)" d="m0 0 3 2-2 28h-1z" fill="#FDFDFD"/>
<path transform="translate(1099,918)" d="m0 0h9l-2 2-8 2h-11v-2l10-1z" fill="#C7D8E9"/>
<path transform="translate(975,972)" d="m0 0h1l1 6v12l-3 6h-2l2-7z" fill="#B1C9E1"/>
<path transform="translate(1016,707)" d="m0 0 1 2-8 13-3 6-2-2 5-10z" fill="#88ADD2"/>
<path transform="translate(1407,698)" d="m0 0 5 2 5 5 8 7 1 4-7-6-12-11z" fill="#A0BEDB"/>
<path transform="translate(499,597)" d="m0 0 2 1 2 6 6 7v2l-4-2-6-7-1-6z" fill="#88ADD2"/>
<path transform="translate(278,973)" d="m0 0 3 1v7l-1 1-9 1-1 1v10l-2-1-1-5 2-6 1-1 7-1 2-2z" fill="#6A99C7"/>
<path transform="translate(99,952)" d="m0 0 6 4 3 6v3h-5l1-7-4-2-3-3z" fill="#E8EEF5"/>
<path transform="translate(531,1079)" d="m0 0 3 1-7 3 6 1v1h-9l-3-1 1-4z" fill="#98B8D8"/>
<path transform="translate(1136,1077)" d="m0 0 2 4-7 4h-5v-3h3l1-2 2 1 1-2z" fill="#012855"/>
<path transform="translate(1104,1047)" d="m0 0 2 3 2 7h-4l-4 2 2-9z" fill="#6796C4"/>
<path transform="translate(1158,1038)" d="m0 0h1l1 14 3 9 1 5-3-3-3-8z" fill="#FDFDFD"/>
<path transform="translate(1096 1e3)" d="m0 0 1 3-5 3h-9l-5-1 1-2h12l4-1z" fill="#FDFDFD"/>
<path transform="translate(1200,955)" d="m0 0h1l1 14-1 11h-1l-1-9v-9z" fill="#AAC4DE"/>
<path transform="translate(200,980)" d="m0 0h1l2 11-1 10-3 2-2-2 3-2z" fill="#79A2CA"/>
<path transform="translate(1179,1068)" d="m0 0h11v3h-18l1-2 6 1z" fill="#6A99C7"/>
<path transform="translate(128,890)" d="m0 0h8l5 4 2 4-1 3-4-6-10-4z" fill="#FDFDFD"/>
<path transform="translate(367,717)" d="m0 0h4v2l-8 2-9 4-3-1h2v-2z" fill="#A2BFDB"/>
<path transform="translate(975,701)" d="m0 0 2 1-2 6-4 4v-6l-3-1v-2z" fill="#FDFDFD"/>
<path transform="translate(241,1042)" d="m0 0h5l1 5-1 1h-5l-1-5z" fill="#FDFDFD"/>
<path transform="translate(1074 1e3)" d="m0 0 1 2 4-1v2h7l5 1v1h-12l-4 1-2-2z" fill="#6A99C7"/>
<path transform="translate(503,950)" d="m0 0 4 1-5 3-5 4-2 4-1-4 1-3z" fill="#ABC5DF"/>
<path transform="translate(301,949)" d="m0 0h6l2 2v5l-3-3-5 1-3 1 2-5z" fill="#AFC8E0"/>
<path transform="translate(85,852)" d="m0 0h7l3 4v6l-4-5-6-4z" fill="#FDFDFD"/>
<path transform="translate(1416,910)" d="m0 0 2 1-7 3-16 1 3-2 2-1h9z" fill="#CDDCEB"/>
<path transform="translate(477,680)" d="m0 0h2v3l-8 3h-7l2-2z" fill="#A5C1DC"/>
<path transform="translate(1136,1081)" d="m0 0h2l-1 3-5 3-10-2v-3l3 2 1-2 2 2 6-1z" fill="#9FBDDA"/>
<path transform="translate(340,840)" d="m0 0 2 1-7 5-4 1h-7l1-2 13-4z" fill="#FDFDFD"/>
<path transform="translate(1030,692)" d="m0 0m-1 1m-1 1 1 3-8 7-4 4v-3l4-5z" fill="#82A9D0"/>
<path transform="translate(608,1051)" d="m0 0 4 1 3 9-4-2v-3h-6z" fill="#6795C3"/>
<path transform="translate(416,996)" d="m0 0 3 1 5 6v2l-6-1-2-5z" fill="#AEC6DD"/>
<path transform="translate(1242,992)" d="m0 0 2 2 2 7 3 3h-5l-3-7z" fill="#B1C9E1"/>
<path transform="translate(1472,948)" d="m0 0h7l7 2v1h-16z" fill="#FDFDFD"/>
<path transform="translate(1058,663)" d="m0 0 3 1-1 2-15 1-5-1v-1z" fill="#729ECA"/>
<path transform="translate(540,1073)" d="m0 0 5 1-1 3h-2l-1 4-4-4z" fill="#5D8BB9"/>
<path transform="translate(1143,1061)" d="m0 0 3 3-1 5-3 3-1-5 1-5z" fill="#012855"/>
<path transform="translate(103,994)" d="m0 0 1 3-7 8-3 1 1-5 6-4z" fill="#FDFDFD"/>
<path transform="translate(1268,954)" d="m0 0 6 4 1 10-1 5h-1l-2-14-3-3z" fill="#C4D6E8"/>
<path transform="translate(1176,952)" d="m0 0 7 3 3 4v6l-2-1-4-7-1-3h-3z" fill="#B3CBE2"/>
<path transform="translate(1125,691)" d="m0 0 5 5 9 7-1 3-14-13z" fill="#76A1CB"/>
<path transform="translate(980,1067)" d="m0 0h16l2 2-21 2z" fill="#6E9CC8"/>
<path transform="translate(592,990)" d="m0 0h1v10l-2 4-4-1 3-4 1-8z" fill="#FDFDFD"/>
<path transform="translate(172,969)" d="m0 0 4 2v3l-2-1-1 10h-1l-1-12z" fill="#6A99C7"/>
<path transform="translate(193,776)" d="m0 0h6l-2 2-13 4h-2v-2z" fill="#B5CCE2"/>
<path transform="translate(78,1050)" d="m0 0m-1 1 1 3-4 3-5 3-4 3 2-4z" fill="#E6EDF4"/>
<path transform="translate(1484,997)" d="m0 0 1 3-3 4h-6l-2-3 1-3v2l5 1z" fill="#93B5D6"/>
<path transform="translate(794,957)" d="m0 0 2 1-3 2-9 2-2 5h-1v-5l4-4z" fill="#FDFDFD"/>
<path transform="translate(1403,952)" d="m0 0h3v6l-4 1h-9l-2 2 1-4 11-1z" fill="#80A8CF"/>
<path transform="translate(78,951)" d="m0 0h2l-1 3-4 2-4 6-2 6-1-4 4-8z" fill="#97B8D7"/>
<path transform="translate(1359,950)" d="m0 0 6 1 1 5-4-3-8 2 1-3z" fill="#93B5D6"/>
<path transform="translate(421,948)" d="m0 0h5l3 3-1 3-1-2h-8z" fill="#CADAEA"/>
<path transform="translate(967,867)" d="m0 0h2l8 11v2l-4-2-6-9z" fill="#97B8D7"/>
<path transform="translate(121,1063)" d="m0 0h8l8 2v1l-8 1v-2h-8z" fill="#CDDCEB"/>
<path transform="translate(1069,1060)" d="m0 0 4 1 1 6-4 4-5-1v-1l7-1z" fill="#FDFDFD"/>
<path transform="translate(1e3 902)" d="m0 0 4 1 10 6v3l-14-9z" fill="#7DA6CE"/>
<path transform="translate(1379,685)" d="m0 0 6 2v1l-22-1v-1z" fill="#DAE5F0"/>
<path transform="translate(642,627)" d="m0 0 3 1-11 4h-6v-2z" fill="#D5E2EE"/>
<path transform="translate(699,999)" d="m0 0h2l4 4 5 1-1 2-7-1-3-2z" fill="#92B4D5"/>
<path transform="translate(1258,984)" d="m0 0 4 1-6 3-2 5-2-2 2-6z" fill="#FDFDFD"/>
<path transform="translate(592,975)" d="m0 0 4 1 5 5-1 2-6-5-2 5h-1v-6z" fill="#6A99C7"/>
<path transform="translate(1123,614)" d="m0 0v3l-10 8-4 1 5-5z" fill="#FDFDFD"/>
<path transform="translate(1141,1058)" d="m0 0 6 1 1 5-2 4-2-6v-2l-3-1z" fill="#C8D9E9"/>
<path transform="translate(762,1047)" d="m0 0 3 1 1 6h-2l-1 2-2-3v-5z" fill="#012855"/>
<path transform="translate(895,951)" d="m0 0 4 2-1 5-7 3 2-4 3-3z" fill="#6694C2"/>
<path transform="translate(1399,893)" d="m0 0 3 1-9 5-8 1 2-2 8-3z" fill="#79A3CC"/>
<path transform="translate(158,778)" d="m0 0 2 1v6h11l-3 2-9 1-1-1z" fill="#6A99C7"/>
<path transform="translate(282,746)" d="m0 0 3 1-5 3-10 2v-2z" fill="#A3C0DC"/>
<path transform="translate(350,723)" d="m0 0 3 1-7 3-8 2 1-3z" fill="#94B5D6"/>
<path transform="translate(666,618)" d="m0 0 1 3-7 3h-4v-2z" fill="#AEC7E0"/>
<path transform="translate(1417,883)" d="m0 0v3l-8 6-4 1-1-2 6-3z" fill="#6A99C7"/>
<path transform="translate(414,701)" d="m0 0h2v2l-10 4h-5l4-3z" fill="#7AA4CD"/>
<path transform="translate(1083,664)" d="m0 0h11v2l2 1-13-1z" fill="#85ABD1"/>
<path transform="translate(966,1063)" d="m0 0h4v2l-2 1h-10v-2z" fill="#6594C2"/>
<path transform="translate(786,1040)" d="m0 0h6l2 2-1 5-3 2v-7z" fill="#FDFDFD"/>
<path transform="translate(366,1016)" d="m0 0h2l-1 4-7 1-1-4 7 1z" fill="#F7F9FA"/>
<path transform="translate(1150,958)" d="m0 0h2l-3 11-2 3v-7l2-6z" fill="#B3CBE2"/>
<path transform="translate(804,938)" d="m0 0h8v2l-2 1h-7z" fill="#FDFDFD"/>
<path transform="translate(1360,1048)" d="m0 0h3v4h-4z" fill="#DDE7F1"/>
</svg>
